%TF.GenerationSoftware,Altium Limited,Altium Designer,23.10.1 (27)*%
G04 Layer_Color=2752767*
%FSLAX45Y45*%
%MOMM*%
%TF.SameCoordinates,C732C167-A78C-4608-B65C-7F4C8643914A*%
%TF.FilePolarity,Positive*%
%TF.FileFunction,Drawing*%
%TF.Part,Single*%
G01*
G75*
%TA.AperFunction,NonConductor*%
%ADD60C,0.12700*%
%ADD61C,0.16933*%
D60*
X27467300Y3450600D02*
Y3425200D01*
X27518100D01*
Y3450600D01*
X27543500D01*
Y3501400D01*
X27518100D01*
Y3526800D01*
X27467300D01*
Y3501400D01*
X27441901D01*
Y3450600D01*
X27467300D01*
Y3164600D02*
Y3139200D01*
X27518100D01*
Y3164600D01*
X27543500D01*
Y3215400D01*
X27518100D01*
Y3240800D01*
X27467300D01*
Y3215400D01*
X27441901D01*
Y3164600D01*
X27467300D01*
X28267300D02*
Y3139200D01*
X28318100D01*
Y3164600D01*
X28343500D01*
Y3215400D01*
X28318100D01*
Y3240800D01*
X28267300D01*
Y3215400D01*
X28241901D01*
Y3164600D01*
X28267300D01*
Y3450600D02*
Y3425200D01*
X28318100D01*
Y3450600D01*
X28343500D01*
Y3501400D01*
X28318100D01*
Y3526800D01*
X28267300D01*
Y3501400D01*
X28241901D01*
Y3450600D01*
X28267300D01*
X29846399Y2389900D02*
X29795599Y2491500D01*
X29897198D01*
X29846399Y2389900D01*
X29655576Y2422905D02*
X29604776Y2524505D01*
X29706375D01*
X29655576Y2422905D01*
X29527005Y2461794D02*
X29476205Y2563394D01*
X29577805D01*
X29527005Y2461794D01*
X29778900Y2407700D02*
X29728101Y2509300D01*
X29829700D01*
X29778900Y2407700D01*
X29653601Y2362300D02*
X29602802Y2463900D01*
X29704401D01*
X29653601Y2362300D01*
X28533838Y2446439D02*
X28483038Y2548039D01*
X28584641D01*
X28533838Y2446439D01*
X28804547Y2411472D02*
X28753748Y2513072D01*
X28855347D01*
X28804547Y2411472D01*
X28959235D02*
X28908435Y2513072D01*
X29010037D01*
X28959235Y2411472D01*
X28655518Y2405813D02*
X28604718Y2507413D01*
X28706320D01*
X28655518Y2405813D01*
X28395200Y2422800D02*
X28344400Y2524400D01*
X28445999D01*
X28395200Y2422800D01*
X29955499Y2199900D02*
X29904700Y2301500D01*
X30006299D01*
X29955499Y2199900D01*
X29991901Y2282700D02*
X29941101Y2384300D01*
X30042700D01*
X29991901Y2282700D01*
X30060300Y2092600D02*
X30009500Y2194200D01*
X30111099D01*
X30060300Y2092600D01*
X30072101Y1976100D02*
X30021301Y2077700D01*
X30122900D01*
X30072101Y1976100D01*
X29969101Y1970100D02*
X29918301Y2071700D01*
X30019901D01*
X29969101Y1970100D01*
X29939200Y2311600D02*
X29888400Y2413200D01*
X29989999D01*
X29939200Y2311600D01*
X29941599Y2495100D02*
X29890799Y2596700D01*
X29992401D01*
X29941599Y2495100D01*
X30036600Y2510400D02*
X29985800Y2612000D01*
X30087399D01*
X30036600Y2510400D01*
X29987701Y2453700D02*
X29936899Y2555300D01*
X30038501D01*
X29987701Y2453700D01*
X29102399Y1919600D02*
X29051599Y2021200D01*
X29153201D01*
X29102399Y1919600D01*
X29426700Y2539700D02*
X29375900Y2641300D01*
X29477499D01*
X29426700Y2539700D01*
X29408200Y2273000D02*
Y2374600D01*
X29509799D01*
Y2273000D01*
X29408200D01*
Y2163000D02*
Y2264600D01*
X29509799D01*
Y2163000D01*
X29408200D01*
X29298199Y2273000D02*
Y2374600D01*
X29399799D01*
Y2273000D01*
X29298199D01*
Y2163000D02*
Y2264600D01*
X29399799D01*
Y2163000D01*
X29298199D01*
X29624301Y1938700D02*
X29573499Y2040300D01*
X29675101D01*
X29624301Y1938700D01*
X29421500Y1920100D02*
X29370700Y2021700D01*
X29472299D01*
X29421500Y1920100D01*
X29736899Y1967700D02*
Y2069300D01*
X29838501D01*
Y1967700D01*
X29736899D01*
X27697699Y3193700D02*
X27723099Y3219100D01*
X27748499D01*
X27723099Y3244500D01*
X27748499Y3269900D01*
X27723099D01*
X27697699Y3295300D01*
X27672299Y3269900D01*
X27646899D01*
X27672299Y3244500D01*
X27646899Y3219100D01*
X27672299D01*
X27697699Y3193700D01*
X28035468Y3298549D02*
X28060870Y3323949D01*
X28086270D01*
X28060870Y3349349D01*
X28086270Y3374749D01*
X28060870D01*
X28035468Y3400149D01*
X28010068Y3374749D01*
X27984668D01*
X28010068Y3349349D01*
X27984668Y3323949D01*
X28010068D01*
X28035468Y3298549D01*
D61*
X27543500Y3333000D02*
G03*
X27543500Y3333000I-50800J0D01*
G01*
X28343500D02*
G03*
X28343500Y3333000I-50800J0D01*
G01*
%TF.MD5,8dbf176567577adc3bce8372620ce32f*%
M02*
