%TF.GenerationSoftware,Altium Limited,Altium Designer,23.10.1 (27)*%
G04 Layer_Physical_Order=2*
G04 Layer_Color=36540*
%FSLAX45Y45*%
%MOMM*%
%TF.SameCoordinates,C732C167-A78C-4608-B65C-7F4C8643914A*%
%TF.FilePolarity,Positive*%
%TF.FileFunction,Copper,L2,Inr,Signal*%
%TF.Part,Single*%
G01*
G75*
%TA.AperFunction,Conductor*%
%ADD10C,0.10000*%
%ADD21C,1.00000*%
%TA.AperFunction,ComponentPad*%
%ADD22O,1.60000X1.10000*%
%ADD23C,0.71000*%
%TA.AperFunction,ViaPad*%
%ADD24C,0.40000*%
%ADD25C,0.50000*%
%ADD26C,0.80000*%
G36*
X26921460Y3023457D02*
X26921436Y3022339D01*
X26910083Y3015785D01*
X26909787Y3015399D01*
X26909317Y3015274D01*
X26898917Y3007294D01*
X26898676Y3006873D01*
X26898227Y3006687D01*
X26888956Y2997418D01*
X26888770Y2996969D01*
X26888351Y2996726D01*
X26880371Y2986326D01*
X26880243Y2985857D01*
X26879858Y2985561D01*
X26873303Y2974208D01*
X26873239Y2973727D01*
X26872897Y2973383D01*
X26867880Y2961272D01*
Y2960786D01*
X26867584Y2960400D01*
X26864191Y2947739D01*
X26864255Y2947257D01*
X26864011Y2946836D01*
X26862302Y2933839D01*
X26862427Y2933370D01*
X26862241Y2932921D01*
Y2919813D01*
X26862427Y2919363D01*
X26862302Y2918894D01*
X26864011Y2905897D01*
X26864255Y2905477D01*
X26864191Y2904995D01*
X26867584Y2892333D01*
X26867880Y2891948D01*
Y2891462D01*
X26872897Y2879351D01*
X26873239Y2879007D01*
X26873303Y2878525D01*
X26879858Y2867173D01*
X26880243Y2866877D01*
X26880371Y2866408D01*
X26888348Y2856008D01*
X26888770Y2855765D01*
X26888956Y2855316D01*
X26898227Y2846047D01*
X26898672Y2845861D01*
X26898917Y2845440D01*
X26909317Y2837460D01*
X26909320Y2835526D01*
X26897604Y2823083D01*
X26713919D01*
Y3035941D01*
X26714017Y3035983D01*
X26909558Y3036130D01*
X26921460Y3023457D01*
D02*
G37*
G36*
X29722421Y4301771D02*
Y2627661D01*
X30016013D01*
X30017264Y2614961D01*
X30014554Y2614422D01*
X29995865Y2601934D01*
X29981274Y2587343D01*
X29963644Y2599122D01*
X29941599Y2603507D01*
X29704739D01*
X29679907Y2628340D01*
Y4041121D01*
X29675522Y4063166D01*
X29663034Y4081855D01*
X29604456Y4140434D01*
X29585767Y4152922D01*
X29563721Y4157307D01*
X27675101D01*
X27653055Y4152922D01*
X27634366Y4140434D01*
X27536209Y4042278D01*
X27402930D01*
X27380884Y4037893D01*
X27362195Y4025405D01*
X27342969Y4006178D01*
X27059610D01*
X27058694Y4007765D01*
X27058310Y4008061D01*
X27058182Y4008530D01*
X27050204Y4018929D01*
X27049783Y4019173D01*
X27049597Y4019622D01*
X27040326Y4028891D01*
X27039880Y4029077D01*
X27039636Y4029498D01*
X27029236Y4037478D01*
X27028766Y4037603D01*
X27028470Y4037989D01*
X27017117Y4044543D01*
X27018213Y4057177D01*
X27018347Y4057846D01*
X27405048D01*
X27406912Y4055983D01*
X27591849Y4141550D01*
X27724414Y4202885D01*
X28400153Y4202883D01*
X28456509Y4259239D01*
Y4302581D01*
X29721609D01*
X29722421Y4301771D01*
D02*
G37*
G36*
X29564694Y4017260D02*
Y2626178D01*
Y2604479D01*
X29569077Y2582433D01*
X29581567Y2563744D01*
X29636908Y2508403D01*
X29639062Y2501189D01*
X29636630Y2492239D01*
X29633109Y2488717D01*
X29629074Y2478977D01*
Y2468434D01*
X29633109Y2458694D01*
X29640564Y2451240D01*
X29650305Y2447205D01*
X29660846D01*
X29670587Y2451240D01*
X29678040Y2458694D01*
X29682074Y2468434D01*
Y2478976D01*
X29691962Y2488293D01*
X29753256D01*
X29758517Y2475593D01*
X29756433Y2473511D01*
X29752399Y2463771D01*
Y2453229D01*
X29756433Y2443489D01*
X29763889Y2436034D01*
X29773630Y2432000D01*
X29784171D01*
X29793912Y2436034D01*
X29801367Y2443489D01*
X29805399Y2453229D01*
Y2463771D01*
X29801367Y2473511D01*
X29799283Y2475593D01*
X29804544Y2488293D01*
X29917737D01*
X29919864Y2486166D01*
X29938553Y2473678D01*
X29960599Y2469293D01*
X30002301D01*
X30024344Y2473678D01*
X30043033Y2486166D01*
X30077335Y2520466D01*
X30089822Y2539155D01*
X30094208Y2561200D01*
X30089822Y2583245D01*
X30077335Y2601934D01*
X30058646Y2614422D01*
X30055933Y2614961D01*
X30057184Y2627661D01*
X30311334D01*
X30324014Y2627612D01*
Y1927639D01*
X27834891D01*
X27822241Y1927760D01*
Y2627733D01*
X28412244D01*
X28411807Y2628172D01*
Y2727083D01*
X28399719D01*
X28329916Y2796883D01*
Y2810383D01*
X28329919Y2812878D01*
X28337747Y2820707D01*
X28335370Y2823084D01*
X28322162Y2823083D01*
X27040948D01*
X27029233Y2835526D01*
X27029236Y2837460D01*
X27039636Y2845440D01*
X27039877Y2845861D01*
X27040326Y2846047D01*
X27049597Y2855316D01*
X27049783Y2855765D01*
X27050204Y2856008D01*
X27058182Y2866408D01*
X27058310Y2866877D01*
X27058694Y2867173D01*
X27059607Y2868754D01*
X27107697D01*
X27107700Y2868755D01*
X27107703Y2868754D01*
X28342978D01*
X28441293Y2770439D01*
Y2532179D01*
X28445679Y2510134D01*
X28458167Y2491445D01*
X28528046Y2421566D01*
X28546735Y2409078D01*
X28568781Y2404693D01*
X28959097D01*
X28959235Y2404665D01*
X28981281Y2409051D01*
X28999969Y2421538D01*
X28999997Y2421566D01*
X29012485Y2440255D01*
X29016870Y2462300D01*
X29012485Y2484345D01*
X28999997Y2503034D01*
X28981308Y2515522D01*
X28959265Y2519907D01*
X28592639D01*
X28556506Y2556040D01*
Y2794300D01*
X28552121Y2816345D01*
X28539633Y2835034D01*
X28407574Y2967095D01*
X28388885Y2979583D01*
X28366840Y2983968D01*
X27107703D01*
X27107700Y2983968D01*
X27107697Y2983968D01*
X27059613D01*
X27058694Y2985561D01*
X27058310Y2985857D01*
X27058182Y2986326D01*
X27050204Y2996726D01*
X27049783Y2996969D01*
X27049597Y2997418D01*
X27040326Y3006687D01*
X27039880Y3006873D01*
X27039636Y3007294D01*
X27029236Y3015274D01*
X27028766Y3015399D01*
X27028470Y3015785D01*
X27017117Y3022339D01*
X27017072Y3023510D01*
X27028796Y3036219D01*
X28317273Y3037185D01*
X28362399Y3057529D01*
X28410187Y3079070D01*
X28457239Y3177150D01*
X28456509Y3624273D01*
X28457239Y3680213D01*
X28445752Y3725245D01*
X28437720Y3759480D01*
X28400113Y3797079D01*
X28388089Y3809111D01*
X28351550Y3817486D01*
X28328128Y3822865D01*
X28315033Y3825855D01*
X28315009Y3825878D01*
Y3830181D01*
X28079910D01*
Y3906181D01*
X28049509D01*
Y3658983D01*
X28049692Y3658802D01*
X28379309D01*
Y3517350D01*
X28366611Y3513498D01*
X28362039Y3520339D01*
X28341696Y3533932D01*
X28317700Y3538705D01*
X28267700D01*
X28243704Y3533932D01*
X28223361Y3520339D01*
X28209769Y3499996D01*
X28204996Y3476000D01*
X28209769Y3452004D01*
X28223361Y3431661D01*
X28243704Y3418068D01*
X28267700Y3413295D01*
X28317700D01*
X28341696Y3418068D01*
X28362039Y3431661D01*
X28366611Y3438503D01*
X28379309Y3434650D01*
Y3231350D01*
X28366611Y3227498D01*
X28362039Y3234339D01*
X28341696Y3247932D01*
X28317700Y3252705D01*
X28267700D01*
X28243704Y3247932D01*
X28223361Y3234339D01*
X28209769Y3213996D01*
X28204996Y3190000D01*
X28209769Y3166004D01*
X28223361Y3145661D01*
X28243704Y3132068D01*
X28244037Y3132002D01*
X28242786Y3119302D01*
X27542612D01*
X27541364Y3132002D01*
X27541696Y3132068D01*
X27562039Y3145661D01*
X27575632Y3166004D01*
X27580405Y3190000D01*
X27575632Y3213996D01*
X27562039Y3234339D01*
X27541696Y3247932D01*
X27517700Y3252705D01*
X27467700D01*
X27443704Y3247932D01*
X27423361Y3234339D01*
X27409769Y3213996D01*
X27406711Y3198624D01*
X27394009Y3199874D01*
Y3466126D01*
X27406711Y3467377D01*
X27409769Y3452004D01*
X27423361Y3431661D01*
X27443704Y3418068D01*
X27467700Y3413295D01*
X27517700D01*
X27541696Y3418068D01*
X27562039Y3431661D01*
X27575632Y3452004D01*
X27580405Y3476000D01*
X27575632Y3499996D01*
X27562039Y3520339D01*
X27541696Y3533932D01*
X27517700Y3538705D01*
X27467700D01*
X27443704Y3533932D01*
X27423361Y3520339D01*
X27409769Y3499996D01*
X27406711Y3484623D01*
X27394009Y3485874D01*
Y3658802D01*
X27549216D01*
Y3905889D01*
X27549509Y3906181D01*
X27519110D01*
Y3830181D01*
X27000031D01*
X26990475Y3842881D01*
X26990649Y3843486D01*
X27003311Y3846879D01*
X27003696Y3847174D01*
X27004181D01*
X27016293Y3852191D01*
X27016635Y3852535D01*
X27017117Y3852598D01*
X27028470Y3859153D01*
X27028766Y3859538D01*
X27029236Y3859664D01*
X27039636Y3867644D01*
X27039877Y3868065D01*
X27040326Y3868251D01*
X27049597Y3877520D01*
X27049783Y3877969D01*
X27050204Y3878212D01*
X27058182Y3888612D01*
X27058310Y3889081D01*
X27058694Y3889377D01*
X27059610Y3890964D01*
X27366830D01*
X27388873Y3895349D01*
X27407562Y3907836D01*
X27426791Y3927064D01*
X27560071D01*
X27582117Y3931449D01*
X27600806Y3943936D01*
X27698962Y4042093D01*
X29539859D01*
X29564694Y4017260D01*
D02*
G37*
%LPC*%
G36*
X28048169Y3387384D02*
Y3362049D01*
X28073505D01*
X28069379Y3372007D01*
X28058127Y3383259D01*
X28048169Y3387384D01*
D02*
G37*
G36*
X28022769D02*
X28012811Y3383259D01*
X28001559Y3372007D01*
X27997433Y3362049D01*
X28022769D01*
Y3387384D01*
D02*
G37*
G36*
X28073505Y3336649D02*
X28048169D01*
Y3311314D01*
X28058127Y3315439D01*
X28069379Y3326691D01*
X28073505Y3336649D01*
D02*
G37*
G36*
X28022769D02*
X27997433D01*
X28001559Y3326691D01*
X28012811Y3315439D01*
X28022769Y3311314D01*
Y3336649D01*
D02*
G37*
G36*
X28301053Y3375000D02*
X28284344D01*
X28268909Y3368606D01*
X28257095Y3356791D01*
X28250699Y3341355D01*
Y3324646D01*
X28257095Y3309209D01*
X28268909Y3297394D01*
X28284344Y3291000D01*
X28301053D01*
X28316492Y3297394D01*
X28328305Y3309209D01*
X28334698Y3324646D01*
Y3341355D01*
X28328305Y3356791D01*
X28316492Y3368606D01*
X28301053Y3375000D01*
D02*
G37*
G36*
X27501053D02*
X27484344D01*
X27468909Y3368606D01*
X27457095Y3356791D01*
X27450699Y3341355D01*
Y3324646D01*
X27457095Y3309209D01*
X27468909Y3297394D01*
X27484344Y3291000D01*
X27501053D01*
X27516492Y3297394D01*
X27528305Y3309209D01*
X27534698Y3324646D01*
Y3341355D01*
X27528305Y3356791D01*
X27516492Y3368606D01*
X27501053Y3375000D01*
D02*
G37*
G36*
X27710400Y3282535D02*
Y3257200D01*
X27735736D01*
X27731610Y3267158D01*
X27720358Y3278410D01*
X27710400Y3282535D01*
D02*
G37*
G36*
X27685001D02*
X27675043Y3278410D01*
X27663791Y3267158D01*
X27659665Y3257200D01*
X27685001D01*
Y3282535D01*
D02*
G37*
G36*
X27735736Y3231800D02*
X27710400D01*
Y3206465D01*
X27720358Y3210590D01*
X27731610Y3221842D01*
X27735736Y3231800D01*
D02*
G37*
G36*
X27685001D02*
X27659665D01*
X27663791Y3221842D01*
X27675043Y3210590D01*
X27685001Y3206465D01*
Y3231800D01*
D02*
G37*
G36*
X29431970Y2617000D02*
X29421429D01*
X29411688Y2612966D01*
X29404233Y2605511D01*
X29400201Y2595771D01*
Y2585229D01*
X29404233Y2575489D01*
X29411688Y2568034D01*
X29421429Y2564000D01*
X29431970D01*
X29441711Y2568034D01*
X29449167Y2575489D01*
X29453201Y2585229D01*
Y2595771D01*
X29449167Y2605511D01*
X29441711Y2612966D01*
X29431970Y2617000D01*
D02*
G37*
G36*
X29532275Y2539094D02*
X29521735D01*
X29511993Y2535060D01*
X29504538Y2527606D01*
X29500504Y2517866D01*
Y2507323D01*
X29504538Y2497583D01*
X29511993Y2490129D01*
X29521735Y2486094D01*
X29532275D01*
X29542017Y2490129D01*
X29549472Y2497583D01*
X29553506Y2507323D01*
Y2517866D01*
X29549472Y2527606D01*
X29542017Y2535060D01*
X29532275Y2539094D01*
D02*
G37*
G36*
X29859100Y2456284D02*
Y2453400D01*
X29861984D01*
X29859100Y2456284D01*
D02*
G37*
G36*
X29833701D02*
X29830814Y2453400D01*
X29833701D01*
Y2456284D01*
D02*
G37*
G36*
X28400470Y2500100D02*
X28389929D01*
X28380188Y2496066D01*
X28372733Y2488611D01*
X28368701Y2478871D01*
Y2468329D01*
X28372733Y2458589D01*
X28380188Y2451134D01*
X28389929Y2447100D01*
X28400470D01*
X28410211Y2451134D01*
X28417667Y2458589D01*
X28421701Y2468329D01*
Y2478871D01*
X28417667Y2488611D01*
X28410211Y2496066D01*
X28400470Y2500100D01*
D02*
G37*
G36*
X29666299Y2428684D02*
Y2425800D01*
X29669183D01*
X29666299Y2428684D01*
D02*
G37*
G36*
X29640900D02*
X29638016Y2425800D01*
X29640900D01*
Y2428684D01*
D02*
G37*
G36*
X29861984Y2428000D02*
X29859100D01*
Y2425116D01*
X29861984Y2428000D01*
D02*
G37*
G36*
X29833701D02*
X29830814D01*
X29833701Y2425116D01*
Y2428000D01*
D02*
G37*
G36*
X29669183Y2400400D02*
X29666299D01*
Y2397516D01*
X29669183Y2400400D01*
D02*
G37*
G36*
X29640900D02*
X29638016D01*
X29640900Y2397516D01*
Y2400400D01*
D02*
G37*
G36*
X29944470Y2388900D02*
X29933929D01*
X29924188Y2384866D01*
X29916733Y2377411D01*
X29912701Y2367671D01*
Y2357129D01*
X29916733Y2347389D01*
X29924188Y2339934D01*
X29933929Y2335900D01*
X29944470D01*
X29952969Y2339419D01*
X29958948Y2337067D01*
X29965399Y2333162D01*
Y2328229D01*
X29969434Y2318489D01*
X29976889Y2311034D01*
X29986630Y2307000D01*
X29997171D01*
X30006912Y2311034D01*
X30014365Y2318489D01*
X30018399Y2328229D01*
Y2338771D01*
X30014365Y2348511D01*
X30006912Y2355966D01*
X29997171Y2360000D01*
X29986630D01*
X29978131Y2356481D01*
X29972153Y2358833D01*
X29965701Y2362738D01*
Y2367671D01*
X29961667Y2377411D01*
X29954211Y2384866D01*
X29944470Y2388900D01*
D02*
G37*
G36*
X29465265Y2355300D02*
X29452734D01*
X29441156Y2350505D01*
X29432294Y2341644D01*
X29427499Y2330066D01*
Y2317534D01*
X29432294Y2305957D01*
X29441156Y2297095D01*
X29452734Y2292300D01*
X29465265D01*
X29476843Y2297095D01*
X29485706Y2305957D01*
X29490500Y2317534D01*
Y2330066D01*
X29485706Y2341644D01*
X29476843Y2350505D01*
X29465265Y2355300D01*
D02*
G37*
G36*
X29355267D02*
X29342734D01*
X29331155Y2350505D01*
X29322296Y2341644D01*
X29317499Y2330066D01*
Y2317534D01*
X29322296Y2305957D01*
X29331155Y2297095D01*
X29342734Y2292300D01*
X29355267D01*
X29366843Y2297095D01*
X29375705Y2305957D01*
X29380499Y2317534D01*
Y2330066D01*
X29375705Y2341644D01*
X29366843Y2350505D01*
X29355267Y2355300D01*
D02*
G37*
G36*
X29960770Y2277200D02*
X29950229D01*
X29940488Y2273166D01*
X29933035Y2265711D01*
X29929001Y2255971D01*
Y2245429D01*
X29933035Y2235689D01*
X29940488Y2228234D01*
X29950229Y2224200D01*
X29960770D01*
X29970511Y2228234D01*
X29977966Y2235689D01*
X29982001Y2245429D01*
Y2255971D01*
X29977966Y2265711D01*
X29970511Y2273166D01*
X29960770Y2277200D01*
D02*
G37*
G36*
X29465265Y2245300D02*
X29452734D01*
X29441156Y2240505D01*
X29432294Y2231643D01*
X29427499Y2220066D01*
Y2207534D01*
X29432294Y2195956D01*
X29441156Y2187095D01*
X29452734Y2182300D01*
X29465265D01*
X29476843Y2187095D01*
X29485706Y2195956D01*
X29490500Y2207534D01*
Y2220066D01*
X29485706Y2231643D01*
X29476843Y2240505D01*
X29465265Y2245300D01*
D02*
G37*
G36*
X29355267D02*
X29342734D01*
X29331155Y2240505D01*
X29322296Y2231643D01*
X29317499Y2220066D01*
Y2207534D01*
X29322296Y2195956D01*
X29331155Y2187095D01*
X29342734Y2182300D01*
X29355267D01*
X29366843Y2187095D01*
X29375705Y2195956D01*
X29380499Y2207534D01*
Y2220066D01*
X29375705Y2231643D01*
X29366843Y2240505D01*
X29355267Y2245300D01*
D02*
G37*
G36*
X30065570Y2169900D02*
X30055029D01*
X30045288Y2165866D01*
X30037833Y2158411D01*
X30033801Y2148671D01*
Y2138129D01*
X30037833Y2128389D01*
X30045288Y2120934D01*
X30055029Y2116900D01*
X30065570D01*
X30075311Y2120934D01*
X30082767Y2128389D01*
X30086801Y2138129D01*
Y2148671D01*
X30082767Y2158411D01*
X30075311Y2165866D01*
X30065570Y2169900D01*
D02*
G37*
G36*
X30077371Y2053400D02*
X30066830D01*
X30057089Y2049366D01*
X30049634Y2041911D01*
X30045599Y2032171D01*
Y2021629D01*
X30049634Y2011889D01*
X30057089Y2004434D01*
X30066830Y2000400D01*
X30077371D01*
X30087112Y2004434D01*
X30094565Y2011889D01*
X30098599Y2021629D01*
Y2032171D01*
X30094565Y2041911D01*
X30087112Y2049366D01*
X30077371Y2053400D01*
D02*
G37*
G36*
X29974371Y2047400D02*
X29963828D01*
X29954089Y2043366D01*
X29946634Y2035911D01*
X29942599Y2026171D01*
Y2015629D01*
X29946634Y2005889D01*
X29954089Y1998434D01*
X29963828Y1994400D01*
X29974371D01*
X29984109Y1998434D01*
X29991565Y2005889D01*
X29995599Y2015629D01*
Y2026171D01*
X29991565Y2035911D01*
X29984109Y2043366D01*
X29974371Y2047400D01*
D02*
G37*
G36*
X29792972Y2045000D02*
X29782428D01*
X29772690Y2040966D01*
X29765234Y2033511D01*
X29761200Y2023771D01*
Y2013229D01*
X29765234Y2003489D01*
X29772690Y1996034D01*
X29782428Y1992000D01*
X29792972D01*
X29802710Y1996034D01*
X29810165Y2003489D01*
X29814200Y2013229D01*
Y2023771D01*
X29810165Y2033511D01*
X29802710Y2040966D01*
X29792972Y2045000D01*
D02*
G37*
G36*
X29629572Y2016000D02*
X29619028D01*
X29609290Y2011966D01*
X29601834Y2004511D01*
X29597800Y1994771D01*
Y1984229D01*
X29601834Y1974489D01*
X29609290Y1967034D01*
X29619028Y1963000D01*
X29629572D01*
X29639310Y1967034D01*
X29646765Y1974489D01*
X29650800Y1984229D01*
Y1994771D01*
X29646765Y2004511D01*
X29639310Y2011966D01*
X29629572Y2016000D01*
D02*
G37*
G36*
X29426770Y1997400D02*
X29416229D01*
X29406488Y1993366D01*
X29399033Y1985911D01*
X29395001Y1976171D01*
Y1965629D01*
X29399033Y1955889D01*
X29406488Y1948434D01*
X29416229Y1944400D01*
X29426770D01*
X29436511Y1948434D01*
X29443967Y1955889D01*
X29448001Y1965629D01*
Y1976171D01*
X29443967Y1985911D01*
X29436511Y1993366D01*
X29426770Y1997400D01*
D02*
G37*
G36*
X29107672Y1996900D02*
X29097128D01*
X29087390Y1992866D01*
X29079935Y1985411D01*
X29075900Y1975671D01*
Y1965129D01*
X29079935Y1955389D01*
X29087390Y1947934D01*
X29097128Y1943900D01*
X29107672D01*
X29117410Y1947934D01*
X29124866Y1955389D01*
X29128900Y1965129D01*
Y1975671D01*
X29124866Y1985411D01*
X29117410Y1992866D01*
X29107672Y1996900D01*
D02*
G37*
%LPD*%
G36*
G01X26869275Y2926367D02*
G03X26969278Y2826367I100000J0D01*
G03X27069278Y2926367I0J100000D01*
G03X26969278Y3026367I-100000J0D01*
G03X26869275Y2926367I0J-100000D01*
D02*
G37*
G36*
G01Y3948571D02*
G03X26969278Y3848571I100000J0D01*
G03X27069278Y3948571I0J100000D01*
G03X26969278Y4048571I-100000J0D01*
G03X26869275Y3948571I0J-100000D01*
D02*
G37*
D10*
X27107697Y2926361D02*
X27107703D01*
D21*
X29622299Y2604479D02*
X29680878Y2545900D01*
X29941599D01*
X29622299Y2604479D02*
Y2626178D01*
X28568781Y2462300D02*
X28959265D01*
X28498901Y2532179D02*
X28568781Y2462300D01*
X28959235Y2462272D02*
X28959265Y2462300D01*
X28366840Y2926361D02*
X28498901Y2794300D01*
Y2532179D02*
Y2794300D01*
X27107703Y2926361D02*
X28366840D01*
X26969281D02*
X27107697D01*
X29622299Y2626178D02*
Y4041121D01*
X29941599Y2545900D02*
X29960599Y2526900D01*
X30002301D01*
X30036600Y2561200D01*
X27675101Y4099700D02*
X29563721D01*
X29622299Y4041121D01*
X26969278Y3948571D02*
X27366830D01*
X27560071Y3984671D02*
X27675101Y4099700D01*
X27402930Y3984671D02*
X27560071D01*
X27366830Y3948571D02*
X27402930Y3984671D01*
D22*
X27492700Y3476000D02*
D03*
Y3190000D02*
D03*
X28292700D02*
D03*
Y3476000D02*
D03*
D23*
X27492700Y3333000D02*
D03*
X28292700D02*
D03*
D24*
X29846399Y2440700D02*
D03*
X29655576Y2473705D02*
D03*
X29527005Y2512594D02*
D03*
X29778900Y2458500D02*
D03*
X29653601Y2413100D02*
D03*
X28533838Y2497239D02*
D03*
X28804547Y2462272D02*
D03*
X28959235D02*
D03*
X28655518Y2456613D02*
D03*
X28395200Y2473600D02*
D03*
X29955499Y2250700D02*
D03*
X29991901Y2333500D02*
D03*
X30060300Y2143400D02*
D03*
X30072101Y2026900D02*
D03*
X29969101Y2020900D02*
D03*
X29939200Y2362400D02*
D03*
X29941599Y2545900D02*
D03*
X30036600Y2561200D02*
D03*
X29987701Y2504500D02*
D03*
X29102399Y1970400D02*
D03*
X29426700Y2590500D02*
D03*
X29624301Y1989500D02*
D03*
X29421500Y1970900D02*
D03*
X29787701Y2018500D02*
D03*
D25*
X29459000Y2323800D02*
D03*
Y2213800D02*
D03*
X29348999Y2323800D02*
D03*
Y2213800D02*
D03*
D26*
X27697699Y3244500D02*
D03*
X28035468Y3349349D02*
D03*
%TF.MD5,808395c51bcec4b49c01fd269caeeafc*%
M02*
