%TF.GenerationSoftware,Altium Limited,Altium Designer,23.10.1 (27)*%
G04 Layer_Color=0*
%FSLAX45Y45*%
%MOMM*%
%TF.SameCoordinates,C732C167-A78C-4608-B65C-7F4C8643914A*%
%TF.FilePolarity,Positive*%
%TF.FileFunction,Profile,NP*%
%TF.Part,Single*%
G01*
G75*
%TA.AperFunction,Profile*%
%ADD53C,0.02540*%
D53*
X27107700Y2821597D02*
Y2821486D01*
X28339227Y2819222D01*
X28341101Y2820397D01*
X28356299Y2809698D01*
X28379483Y2793803D01*
X28385641Y2782136D01*
X28392682Y2766562D01*
X28398480Y2755367D01*
X28413287Y2725599D01*
X28413748Y2626230D01*
X27823724Y2626253D01*
X27823721Y1926278D01*
X27823694Y1926252D01*
X27823788Y1926154D01*
X30325497Y1926153D01*
X30325497Y2626128D01*
X30325525Y2626154D01*
X29723904Y2626181D01*
Y4300288D01*
X29723093Y4301100D01*
X28457993Y4301100D01*
X28457990Y4257799D01*
X28439188Y4224218D01*
X28406464Y4206232D01*
X27725900Y4201403D01*
X27408395Y4054502D01*
X27217126Y4055080D01*
X27217123Y3829270D01*
X27520593Y3828695D01*
X27520596Y3904696D01*
X27550986D01*
X27550699Y3904407D01*
X27550696Y3657322D01*
X27395493D01*
X27395490Y3117819D01*
X28380792Y3117816D01*
X28380795Y3657319D01*
X28050818Y3657322D01*
X28050995Y3657498D01*
X28050995Y3904696D01*
X28081390D01*
Y3828698D01*
X28316489Y3828695D01*
Y3824395D01*
X28389572Y3807612D01*
X28401593Y3795594D01*
X28439191Y3757997D01*
X28457990Y3677999D01*
Y3176399D01*
X28411667Y3077589D01*
X28316095Y3034502D01*
X27107697D01*
X27107697Y3033548D01*
X26716501Y3035703D01*
X26715399Y3034602D01*
X26715396Y2821600D01*
X27107700Y2821597D01*
%TF.MD5,9d078c096ccd95c2372ce33539ee754d*%
M02*
