%TF.GenerationSoftware,Altium Limited,Altium Designer,23.10.1 (27)*%
G04 Layer_Color=8421504*
%FSLAX45Y45*%
%MOMM*%
%TF.SameCoordinates,C732C167-A78C-4608-B65C-7F4C8643914A*%
%TF.FilePolarity,Positive*%
%TF.FileFunction,Paste,Top*%
%TF.Part,Single*%
G01*
G75*
%TA.AperFunction,SMDPad,CuDef*%
%ADD11R,1.70000X1.00000*%
%ADD12O,0.25000X0.85000*%
%ADD13O,0.85000X0.25000*%
%ADD14R,2.45000X2.45000*%
%ADD15R,0.30000X0.30000*%
%ADD16R,1.00000X2.70000*%
%ADD17R,0.50000X0.45000*%
G04:AMPARAMS|DCode=18|XSize=0.55mm|YSize=0.5mm|CornerRadius=0.0625mm|HoleSize=0mm|Usage=FLASHONLY|Rotation=0.000|XOffset=0mm|YOffset=0mm|HoleType=Round|Shape=RoundedRectangle|*
%AMROUNDEDRECTD18*
21,1,0.55000,0.37500,0,0,0.0*
21,1,0.42500,0.50000,0,0,0.0*
1,1,0.12500,0.21250,-0.18750*
1,1,0.12500,-0.21250,-0.18750*
1,1,0.12500,-0.21250,0.18750*
1,1,0.12500,0.21250,0.18750*
%
%ADD18ROUNDEDRECTD18*%
%ADD19R,0.30000X0.30000*%
D11*
X29012698Y2464500D02*
D03*
X28382700D02*
D03*
X29012698Y2084500D02*
D03*
X28382700D02*
D03*
D12*
X29529001Y2458800D02*
D03*
X29479001D02*
D03*
X29429001D02*
D03*
X29379001D02*
D03*
X29329001D02*
D03*
X29279001D02*
D03*
Y2078800D02*
D03*
X29329001D02*
D03*
X29379001D02*
D03*
X29429001D02*
D03*
X29479001D02*
D03*
X29529001D02*
D03*
D13*
X29214001Y2393800D02*
D03*
Y2343800D02*
D03*
Y2293800D02*
D03*
Y2243800D02*
D03*
Y2193800D02*
D03*
Y2143800D02*
D03*
X29594000D02*
D03*
Y2193800D02*
D03*
Y2243800D02*
D03*
Y2293800D02*
D03*
Y2343800D02*
D03*
Y2393800D02*
D03*
D14*
X29404001Y2268800D02*
D03*
D15*
X29783701Y2496500D02*
D03*
X29723700D02*
D03*
X29702701Y1975500D02*
D03*
X29762701D02*
D03*
X29702701Y2057500D02*
D03*
X29762701D02*
D03*
X29503699Y1971500D02*
D03*
X29563699D02*
D03*
X29296600Y1969100D02*
D03*
X29356601D02*
D03*
X29225400Y1968800D02*
D03*
X29165399D02*
D03*
X29785699Y2577500D02*
D03*
X29725699D02*
D03*
D16*
X29952701Y2260500D02*
D03*
X29732700D02*
D03*
D17*
X29477701Y2571300D02*
D03*
X29552701D02*
D03*
D18*
X27897699Y2213500D02*
D03*
Y2304500D02*
D03*
X28097699Y2213500D02*
D03*
Y2304500D02*
D03*
X27997699Y2213500D02*
D03*
Y2304500D02*
D03*
X28197699Y2213500D02*
D03*
Y2304500D02*
D03*
D19*
X29859698Y2553500D02*
D03*
Y2493500D02*
D03*
%TF.MD5,787799028647bc2609101602b7faedd8*%
M02*
