%TF.GenerationSoftware,Altium Limited,Altium Designer,23.10.1 (27)*%
G04 Layer_Color=65535*
%FSLAX45Y45*%
%MOMM*%
%TF.SameCoordinates,C732C167-A78C-4608-B65C-7F4C8643914A*%
%TF.FilePolarity,Positive*%
%TF.FileFunction,Legend,Top*%
%TF.Part,Single*%
G01*
G75*
%TA.AperFunction,NonConductor*%
%ADD29C,0.25000*%
%ADD30C,0.20000*%
%ADD31C,0.10000*%
%ADD32C,0.15000*%
D29*
X28395200Y1979500D02*
G03*
X28395200Y1979500I-12500J0D01*
G01*
X29619000Y2551300D02*
G03*
X29619000Y2551300I-12500J0D01*
G01*
X29745200Y2450500D02*
G03*
X29745200Y2450500I-12500J0D01*
G01*
D30*
X28507700Y2114500D02*
X28597699Y2024500D01*
X28797699D02*
X28887698Y2114500D01*
X28797699Y2524500D02*
X28887698Y2434500D01*
X28507700D02*
X28597699Y2524500D01*
X28447699Y2174500D02*
Y2374500D01*
X28597699Y2524500D02*
X28797699D01*
X28597699Y2024500D02*
X28797699D01*
X28947699Y2174500D02*
Y2374500D01*
X29581500Y2486300D02*
X29621500D01*
Y2446300D02*
Y2486300D01*
Y2051300D02*
Y2091300D01*
X29581500Y2051300D02*
X29621500D01*
X29186499D02*
X29226501D01*
X29186499D02*
Y2091300D01*
Y2486300D02*
X29226501D01*
X29186499Y2446300D02*
Y2486300D01*
X29822699Y2110500D02*
Y2410500D01*
X29862701Y2110500D02*
Y2410500D01*
X29822699Y2110500D02*
X29862701D01*
X29822699Y2410500D02*
X29862701D01*
D31*
X29693701Y2461500D02*
Y2496500D01*
Y2461500D02*
X29813699D01*
X29693701Y2496500D02*
Y2531500D01*
X29813699D01*
Y2461500D02*
Y2531500D01*
X29792700Y1975500D02*
Y2010500D01*
X29672699D02*
X29792700D01*
Y1940500D02*
Y1975500D01*
X29672699Y1940500D02*
X29792700D01*
X29672699D02*
Y2010500D01*
X29792700Y2057500D02*
Y2092500D01*
X29672699D02*
X29792700D01*
Y2022500D02*
Y2057500D01*
X29672699Y2022500D02*
X29792700D01*
X29672699D02*
Y2092500D01*
X29593701Y1971500D02*
Y2006500D01*
X29473700D02*
X29593701D01*
Y1936500D02*
Y1971500D01*
X29473700Y1936500D02*
X29593701D01*
X29473700D02*
Y2006500D01*
X29386600Y1969100D02*
Y2004100D01*
X29266599D02*
X29386600D01*
Y1934100D02*
Y1969100D01*
X29266599Y1934100D02*
X29386600D01*
X29266599D02*
Y2004100D01*
X29135400Y1933800D02*
Y1968800D01*
Y1933800D02*
X29255399D01*
X29135400Y1968800D02*
Y2003800D01*
X29255399D01*
Y1933800D02*
Y2003800D01*
X29695700Y2542500D02*
Y2577500D01*
Y2542500D02*
X29815701D01*
X29695700Y2577500D02*
Y2612500D01*
X29815701D01*
Y2542500D02*
Y2612500D01*
X29859698Y2463500D02*
X29894699D01*
Y2583500D01*
X29824701Y2463500D02*
X29859698D01*
X29824701D02*
Y2583500D01*
X29894699D01*
D32*
X27877701Y2349000D02*
X27917700D01*
X28077701D02*
X28117700D01*
X27977701D02*
X28017700D01*
X28177701D02*
X28217700D01*
%TF.MD5,5927b13eda8dc375a5497fa2713eb110*%
M02*
