%TF.GenerationSoftware,Altium Limited,Altium Designer,23.10.1 (27)*%
G04 Layer_Color=16711935*
%FSLAX45Y45*%
%MOMM*%
%TF.SameCoordinates,C732C167-A78C-4608-B65C-7F4C8643914A*%
%TF.FilePolarity,Positive*%
%TF.FileFunction,Other,B.CrtYd*%
%TF.Part,Single*%
G01*
G75*
%TA.AperFunction,NonConductor*%
%ADD30C,0.20000*%
%ADD31C,0.10000*%
D30*
X27627701Y3067000D02*
G03*
X27627701Y3067000I-10000J0D01*
G01*
D31*
X29566501Y2381300D02*
G03*
X29566501Y2381300I-50000J0D01*
G01*
X28597699Y2524500D02*
X28797699D01*
X28947699Y2174500D02*
Y2374500D01*
X28597699Y2024500D02*
X28797699D01*
X28447699Y2174500D02*
Y2374500D01*
Y2174500D02*
X28597699Y2024500D01*
X28447699Y2374500D02*
X28597699Y2524500D01*
X28797699D02*
X28947699Y2374500D01*
X28797699Y2024500D02*
X28947699Y2174500D01*
X29201501Y2471300D02*
X29606500D01*
X29201501Y2066300D02*
X29606500D01*
Y2471300D01*
X29201501Y2066300D02*
Y2471300D01*
X29692700Y2410500D02*
X29992700D01*
X29692700Y2110500D02*
Y2410500D01*
Y2110500D02*
X29992700D01*
Y2410500D01*
X27445700Y3175000D02*
Y3491000D01*
Y3175000D02*
X28339700D01*
Y3491000D01*
X27445700D02*
X28339700D01*
X29462701Y2598800D02*
X29567700D01*
X29462701Y2543800D02*
X29567700D01*
X29462701D02*
Y2598800D01*
X29567700Y2543800D02*
Y2598800D01*
%TF.MD5,e29835040ccbe06d3039376bfbd6d6fb*%
M02*
