%TF.GenerationSoftware,Altium Limited,Altium Designer,23.10.1 (27)*%
G04 Layer_Physical_Order=1*
G04 Layer_Color=255*
%FSLAX45Y45*%
%MOMM*%
%TF.SameCoordinates,C732C167-A78C-4608-B65C-7F4C8643914A*%
%TF.FilePolarity,Positive*%
%TF.FileFunction,Copper,L1,Top,Signal*%
%TF.Part,Single*%
G01*
G75*
%TA.AperFunction,Conductor*%
%ADD10C,0.10000*%
%TA.AperFunction,SMDPad,CuDef*%
%ADD11R,1.70000X1.00000*%
%ADD12O,0.25000X0.85000*%
%ADD13O,0.85000X0.25000*%
%ADD14R,2.45000X2.45000*%
%ADD15R,0.30000X0.30000*%
%ADD16R,1.00000X2.70000*%
%ADD17R,0.50000X0.45000*%
G04:AMPARAMS|DCode=18|XSize=0.55mm|YSize=0.5mm|CornerRadius=0.0625mm|HoleSize=0mm|Usage=FLASHONLY|Rotation=0.000|XOffset=0mm|YOffset=0mm|HoleType=Round|Shape=RoundedRectangle|*
%AMROUNDEDRECTD18*
21,1,0.55000,0.37500,0,0,0.0*
21,1,0.42500,0.50000,0,0,0.0*
1,1,0.12500,0.21250,-0.18750*
1,1,0.12500,-0.21250,-0.18750*
1,1,0.12500,-0.21250,0.18750*
1,1,0.12500,0.21250,0.18750*
%
%ADD18ROUNDEDRECTD18*%
%ADD19R,0.30000X0.30000*%
%TA.AperFunction,Conductor*%
%ADD20C,0.30000*%
%ADD21C,1.00000*%
%TA.AperFunction,ComponentPad*%
%ADD22O,1.60000X1.10000*%
%ADD23C,0.71000*%
%TA.AperFunction,ViaPad*%
%ADD24C,0.40000*%
%ADD25C,0.50000*%
%ADD26C,0.80000*%
D10*
X29463000Y1970900D02*
G03*
X29458633Y1989433I-41500J-0D01*
G01*
X29550201Y2571300D02*
X29552701D01*
X29522995Y2544094D02*
X29550201Y2571300D01*
X29514258Y2544094D02*
X29522995D01*
X29481299Y2495700D02*
X29481842D01*
X29495505Y2509364D02*
Y2525642D01*
X29507162Y2537300D02*
X29507462D01*
X29481842Y2495700D02*
X29495505Y2509364D01*
X29507462Y2537300D02*
X29514258Y2544094D01*
X29495505Y2525642D02*
X29507162Y2537300D01*
X28181699Y2544500D02*
X29321841D01*
X29327701Y2538642D01*
X28101700Y2464500D02*
X28181699Y2544500D01*
X29489200Y2458800D02*
Y2487800D01*
X29429001Y2458800D02*
Y2529600D01*
X29354300Y2604300D02*
X29429001Y2529600D01*
X27969101Y2604300D02*
X29354300D01*
X29481299Y2495700D02*
X29489200Y2487800D01*
X29487296Y2456896D02*
X29489200Y2458800D01*
X29486700Y2456896D02*
X29487296D01*
X29469971Y1943500D02*
X29696841D01*
X29463000Y1949359D02*
X29468860Y1943500D01*
X29469971Y1943500D01*
X29463000Y1970900D02*
X29463000Y1949359D01*
X29702701Y1949358D02*
Y1975500D01*
X29696841Y1943500D02*
X29702701Y1949358D01*
X29225400Y1968800D02*
Y1994800D01*
X29254001Y2293800D02*
X29419000D01*
X29277701Y2012500D02*
Y2103024D01*
X29296600Y1969100D02*
Y1993601D01*
X29429001Y2048800D02*
Y2078800D01*
Y2048800D02*
X29458630Y1989433D01*
X29479001Y1988374D02*
Y2078800D01*
X29493701Y1977768D02*
X29503699Y1971500D01*
X29482730Y1984644D02*
X29493701Y1977768D01*
X29479001Y1988374D02*
X29482730Y1984644D01*
X29485172Y2078800D02*
X29529001D01*
X29479001D02*
X29485172D01*
X29781961Y2024240D02*
Y2038240D01*
Y2012760D02*
X29787701Y2018500D01*
X29762701Y1975500D02*
X29781961Y1994760D01*
X29762701Y2057500D02*
X29781961Y2038240D01*
Y1994760D02*
Y2012760D01*
Y2024240D02*
X29787701Y2018500D01*
X29702701Y1975500D02*
Y2057500D01*
X29529001Y2052593D02*
Y2078800D01*
X28056699Y2574500D02*
X29346701D01*
X29377701Y2448081D02*
Y2543500D01*
X29346701Y2574500D02*
X29377701Y2543500D01*
X28006699Y2524500D02*
X28056699Y2574500D01*
X28006699Y2300948D02*
Y2524500D01*
X28101700Y2303338D02*
Y2464500D01*
X28237701D02*
X28382700D01*
X28147699Y2374500D02*
X28237701Y2464500D01*
X29277701Y2012500D02*
X29296600Y1993601D01*
X29214001Y2006200D02*
X29225400Y1994800D01*
X29214001Y2006200D02*
Y2143800D01*
X27910300Y2298900D02*
Y2545500D01*
X29327701Y2499054D02*
Y2538642D01*
X29329001Y2458800D02*
Y2484741D01*
X29322070Y2491670D02*
X29329001Y2484741D01*
X28147699Y2219358D02*
Y2374500D01*
Y2219358D02*
X28153558Y2213500D01*
X27910300Y2545500D02*
X27969101Y2604300D01*
D11*
X29012698Y2464500D02*
D03*
X28382700D02*
D03*
X29012698Y2084500D02*
D03*
X28382700D02*
D03*
D12*
X29529001Y2458800D02*
D03*
X29479001D02*
D03*
X29429001D02*
D03*
X29379001D02*
D03*
X29329001D02*
D03*
X29279001D02*
D03*
Y2078800D02*
D03*
X29329001D02*
D03*
X29379001D02*
D03*
X29429001D02*
D03*
X29479001D02*
D03*
X29529001D02*
D03*
D13*
X29214001Y2393800D02*
D03*
Y2343800D02*
D03*
Y2293800D02*
D03*
Y2243800D02*
D03*
Y2193800D02*
D03*
Y2143800D02*
D03*
X29594000D02*
D03*
Y2193800D02*
D03*
Y2243800D02*
D03*
Y2293800D02*
D03*
Y2343800D02*
D03*
Y2393800D02*
D03*
D14*
X29404001Y2268800D02*
D03*
D15*
X29783701Y2496500D02*
D03*
X29723700D02*
D03*
X29702701Y1975500D02*
D03*
X29762701D02*
D03*
X29702701Y2057500D02*
D03*
X29762701D02*
D03*
X29503699Y1971500D02*
D03*
X29563699D02*
D03*
X29296600Y1969100D02*
D03*
X29356601D02*
D03*
X29225400Y1968800D02*
D03*
X29165399D02*
D03*
X29785699Y2577500D02*
D03*
X29725699D02*
D03*
D16*
X29952701Y2260500D02*
D03*
X29732700D02*
D03*
D17*
X29477701Y2571300D02*
D03*
X29552701D02*
D03*
D18*
X27897699Y2213500D02*
D03*
Y2304500D02*
D03*
X28097699Y2213500D02*
D03*
Y2304500D02*
D03*
X27997699Y2213500D02*
D03*
Y2304500D02*
D03*
X28197699Y2213500D02*
D03*
Y2304500D02*
D03*
D19*
X29859698Y2553500D02*
D03*
Y2493500D02*
D03*
D20*
X29657156Y2475287D02*
X29702487D01*
X29723700Y2496500D01*
X29655576Y2473705D02*
X29657156Y2475287D01*
X29527005Y2512595D02*
X29528003Y2511597D01*
Y2459797D02*
X29529001Y2458800D01*
X29528003Y2459797D02*
Y2511597D01*
X29854401Y2488200D02*
X29859698Y2493500D01*
X29820245Y2417000D02*
X29854401Y2451154D01*
Y2488200D01*
X29673795Y2417000D02*
X29820245D01*
X29671808Y2415013D02*
X29673795Y2417000D01*
X29654877Y2414377D02*
X29655511Y2415013D01*
X29671808D01*
X29780313Y2459913D02*
Y2493113D01*
X29778900Y2458500D02*
X29780313Y2459913D01*
Y2493113D02*
X29783701Y2496500D01*
Y2556500D01*
X29619000Y2393800D02*
X29636386Y2411187D01*
X29594000Y2393800D02*
X29619000D01*
X29945099Y2260500D02*
X29952701D01*
X29594000Y2193800D02*
Y2243800D01*
X29697699Y2197700D02*
X29732700Y2232700D01*
X29599399Y2197700D02*
X29697699D01*
X29732700Y2232700D02*
Y2260500D01*
X29723700Y2496500D02*
Y2556500D01*
X29102399Y1970400D02*
X29162299D01*
X29426700Y2590500D02*
X29438400Y2578800D01*
X29470200D02*
X29477701Y2571300D01*
X29438400Y2578800D02*
X29470200D01*
X29702701Y2057500D02*
X29702701D01*
X29611575D02*
X29702701D01*
X29594000Y2075074D02*
Y2143800D01*
Y2075074D02*
X29611575Y2057500D01*
X28203973Y2310728D02*
Y2310772D01*
Y2310728D02*
X28210199Y2304500D01*
X29037399D01*
X29140701Y2456026D02*
X29158273Y2473600D01*
X29037399Y2304500D02*
X29140701Y2407800D01*
X29158273Y2473600D02*
X29276501D01*
X29140701Y2407800D02*
Y2456026D01*
X29276501Y2473600D02*
X29279001Y2471100D01*
Y2458800D02*
Y2471100D01*
X29012698Y2176226D02*
X29030273Y2193800D01*
X29214001D01*
X29012698Y2084500D02*
Y2176226D01*
X28382700Y2084500D02*
X29012698D01*
X29618561Y1983760D02*
X29624301Y1989500D01*
X29563699Y1971500D02*
X29575961Y1983760D01*
X29618561D01*
X29783701Y2556500D02*
X29856699D01*
X29429001Y2293800D02*
X29594000D01*
X29376700Y1973500D02*
X29418900D01*
X29421500Y1970900D01*
X29404001Y2268800D02*
X29429001Y2293800D01*
X29479001Y2343800D02*
X29594000D01*
X29459000Y2323800D02*
X29479001Y2343800D01*
X29856699Y2556500D02*
X29859698Y2553500D01*
X28153558Y2213500D02*
X28197699D01*
X28097699D02*
X28153558D01*
X27997699D02*
X28097699D01*
X27897699D02*
X27997699D01*
D21*
X28395200Y2464500D02*
X28655518D01*
X29945099Y2260500D02*
X30035501Y2350900D01*
D22*
X27492700Y3476000D02*
D03*
Y3190000D02*
D03*
X28292700D02*
D03*
Y3476000D02*
D03*
D23*
X27492700Y3333000D02*
D03*
X28292700D02*
D03*
D24*
X29846399Y2440700D02*
D03*
X29655576Y2473705D02*
D03*
X29527005Y2512594D02*
D03*
X29778900Y2458500D02*
D03*
X29653601Y2413100D02*
D03*
X28533838Y2497239D02*
D03*
X28804547Y2462272D02*
D03*
X28959235D02*
D03*
X28655518Y2456613D02*
D03*
X28395200Y2473600D02*
D03*
X29955499Y2250700D02*
D03*
X29991901Y2333500D02*
D03*
X30060300Y2143400D02*
D03*
X30072101Y2026900D02*
D03*
X29969101Y2020900D02*
D03*
X29939200Y2362400D02*
D03*
X29941599Y2545900D02*
D03*
X30036600Y2561200D02*
D03*
X29987701Y2504500D02*
D03*
X29102399Y1970400D02*
D03*
X29426700Y2590500D02*
D03*
X29624301Y1989500D02*
D03*
X29421500Y1970900D02*
D03*
X29787701Y2018500D02*
D03*
D25*
X29459000Y2323800D02*
D03*
Y2213800D02*
D03*
X29348999Y2323800D02*
D03*
Y2213800D02*
D03*
D26*
X27697699Y3244500D02*
D03*
X28035468Y3349349D02*
D03*
%TF.MD5,ae50498800d8204879561e908d4b160f*%
M02*
