%TF.GenerationSoftware,Altium Limited,Altium Designer,23.10.1 (27)*%
G04 Layer_Color=16711935*
%FSLAX45Y45*%
%MOMM*%
%TF.SameCoordinates,C732C167-A78C-4608-B65C-7F4C8643914A*%
%TF.FilePolarity,Positive*%
%TF.FileFunction,Other,User.9*%
%TF.Part,Single*%
G01*
G75*
%TA.AperFunction,NonConductor*%
%ADD50C,0.01270*%
%ADD51C,0.00000*%
D50*
X27069278Y2926367D02*
G03*
X27069278Y2926367I-100000J0D01*
G01*
Y3948571D02*
G03*
X27069278Y3948571I-100000J0D01*
G01*
X28354578Y3367199D02*
G03*
X28207822Y3516432I-147995J1238D01*
G01*
X27444983Y3299806D02*
G03*
X27576865Y3165698I132995J-1113D01*
G01*
X28204718Y3145445D02*
G03*
X28353949Y3292202I1238J147995D01*
G01*
X27579843Y3521686D02*
G03*
X27430609Y3374929I-1238J-147995D01*
G01*
X28339578Y3367325D02*
G03*
X28207693Y3501433I-132995J1113D01*
G01*
X27429984Y3299931D02*
G03*
X27576740Y3150698I147995J-1238D01*
G01*
X27579718Y3506686D02*
G03*
X27445609Y3374803I-1113J-132995D01*
G01*
X28204843Y3160444D02*
G03*
X28338950Y3292327I1113J132995D01*
G01*
X28204968Y3175444D02*
G03*
X28323953Y3292452I987J117996D01*
G01*
X29723700Y2626178D02*
X30325522Y2626156D01*
X27823724Y2626250D02*
X28413699Y2626228D01*
X27395493Y3657319D02*
X27550699D01*
X27395493Y3117819D02*
Y3657319D01*
X27550992Y3657500D02*
Y3904699D01*
X28050992Y3657500D02*
Y3904699D01*
X28050699Y3657319D02*
X28380792D01*
X28354367Y3342200D02*
X28354578Y3367199D01*
X27444983Y3299806D02*
X27445401Y3349804D01*
X27576865Y3165698D02*
X28204843Y3160445D01*
X27430402Y3349930D02*
X27430609Y3374929D01*
X28339368Y3342326D02*
X28339578Y3367324D01*
X27579843Y3521685D02*
X28207822Y3516432D01*
X27576865Y3165698D02*
X27576990Y3180697D01*
X28204968Y3175444D01*
X28204843Y3160445D02*
X28204968Y3175444D01*
X27576865Y3165698D02*
X28204843Y3160445D01*
X28353949Y3292202D02*
X28354367Y3342200D01*
X28338950Y3292327D02*
X28339368Y3342326D01*
X27429984Y3299931D02*
X27430402Y3349930D01*
X27579718Y3506686D02*
X28207693Y3501432D01*
X27576740Y3150698D02*
X28204718Y3145445D01*
X27445401Y3349804D02*
X27445609Y3374803D01*
X28204843Y3160445D02*
X28204968Y3175444D01*
X28323950Y3292453D02*
X28338950Y3292327D01*
X28380792Y3117819D02*
Y3657319D01*
X27395493Y3117819D02*
X28380792D01*
X27277530Y3828751D02*
X27279031Y4054951D01*
X27346295Y3828698D02*
X27347794Y4054898D01*
X27550992Y3820735D02*
X28050992D01*
X27550992Y3889498D02*
X28050992D01*
X27154529Y2819435D02*
X27155530Y3033635D01*
X27223294Y2819398D02*
X27224295Y3033598D01*
X28413348Y2725635D02*
X29723148Y2734735D01*
X28379218Y2794163D02*
X29723093Y2803500D01*
X30325497Y1926156D02*
X30325522Y2626156D01*
X27823697Y1926250D02*
X30325497Y1926156D01*
X27823697Y1926250D02*
X27823724Y2626250D01*
X27520593Y3904699D02*
X27550992D01*
X27520593Y3828698D02*
Y3904699D01*
X27346295Y3828698D02*
X27520593D01*
X27277530Y3828751D02*
X27346295Y3828698D01*
X26838339Y3831663D02*
X27277530Y3828751D01*
X26838339Y3831663D02*
X26839841Y4057863D01*
X27279031Y4054951D01*
X27347794Y4054898D01*
X27408792D01*
X27521793Y4106698D01*
X27522189Y4107287D01*
X27725900Y4201400D01*
X28191891Y4205398D01*
X28405594D01*
X28439194Y4224198D01*
X28457993Y4257898D01*
Y4301098D01*
X29723093D01*
Y2803500D02*
Y4301098D01*
Y2803500D02*
X29723148Y2734735D01*
X29723901Y2626178D01*
X28413348Y2725635D02*
X28414038Y2626228D01*
X28379218Y2794163D02*
X28413348Y2725635D01*
X28341092Y2820398D02*
X28379218Y2794163D01*
X28339493Y2819398D02*
X28341092Y2820398D01*
X27223294Y2819398D02*
X28339493D01*
X27154529Y2819435D02*
X27223294Y2819398D01*
X26715335Y2821486D02*
X27154529Y2819435D01*
X26715335Y2821486D02*
X26716336Y3035686D01*
X27155530Y3033635D01*
X27224295Y3033598D01*
X28316492D01*
Y3035398D01*
X28413293Y3078298D01*
X28457993Y3176398D01*
Y3681398D01*
X28439194Y3757998D02*
X28457993Y3681398D01*
X28413293Y3783898D02*
X28439194Y3757998D01*
X28389194Y3807998D02*
X28413293Y3783898D01*
X28316492Y3824398D02*
X28389194Y3807998D01*
X28316492Y3824398D02*
Y3828698D01*
X28081393D02*
X28316492D01*
X28081393D02*
Y3904699D01*
X28050992D02*
X28081393D01*
D51*
X28307700Y3297500D02*
G03*
X28343201Y3333000I0J35500D01*
G01*
D02*
G03*
X28307700Y3368500I-35500J0D01*
G01*
X28277701D02*
G03*
X28242200Y3333000I0J-35500D01*
G01*
D02*
G03*
X28277701Y3297500I35500J0D01*
G01*
X28307700D01*
X28277701Y3368500D02*
X28307700D01*
%TF.MD5,9b8084a2216ebfe300b08e93c6a1660b*%
M02*
