%TF.GenerationSoftware,Altium Limited,Altium Designer,23.10.1 (27)*%
G04 Layer_Color=32768*
%FSLAX45Y45*%
%MOMM*%
%TF.SameCoordinates,C732C167-A78C-4608-B65C-7F4C8643914A*%
%TF.FilePolarity,Positive*%
%TF.FileFunction,Other,Top_Designator*%
%TF.Part,Single*%
G01*
G75*
G36*
X27923318Y2380906D02*
X27889539D01*
Y2362024D01*
X27885001D01*
Y2386000D01*
X27923318D01*
Y2380906D01*
D02*
G37*
G36*
Y2328192D02*
X27918777D01*
Y2350839D01*
X27907092D01*
Y2329631D01*
X27902554D01*
Y2350839D01*
X27889539D01*
Y2327306D01*
X27885001D01*
Y2355933D01*
X27923318D01*
Y2328192D01*
D02*
G37*
G36*
Y2305545D02*
X27923260Y2304548D01*
X27923206Y2303440D01*
X27923096Y2302333D01*
X27922928Y2301226D01*
X27922763Y2300284D01*
Y2300229D01*
X27922708Y2300118D01*
Y2299952D01*
X27922598Y2299730D01*
X27922430Y2299121D01*
X27922153Y2298346D01*
X27921768Y2297460D01*
X27921268Y2296519D01*
X27920715Y2295578D01*
X27919995Y2294692D01*
X27919940Y2294636D01*
X27919885Y2294581D01*
X27919717Y2294415D01*
X27919553Y2294193D01*
X27918997Y2293640D01*
X27918222Y2292975D01*
X27917282Y2292255D01*
X27916174Y2291480D01*
X27914899Y2290760D01*
X27913461Y2290151D01*
X27913406D01*
X27913297Y2290096D01*
X27913074Y2289985D01*
X27912741Y2289930D01*
X27912354Y2289764D01*
X27911911Y2289653D01*
X27911411Y2289542D01*
X27910803Y2289376D01*
X27910193Y2289210D01*
X27909473Y2289099D01*
X27907925Y2288822D01*
X27906207Y2288656D01*
X27904324Y2288601D01*
X27904269D01*
X27904156D01*
X27903882D01*
X27903604D01*
X27903217Y2288656D01*
X27902774D01*
X27901721Y2288711D01*
X27900504Y2288878D01*
X27899231Y2289044D01*
X27897900Y2289321D01*
X27896573Y2289653D01*
X27896518D01*
X27896405Y2289708D01*
X27896240Y2289764D01*
X27896021Y2289819D01*
X27895410Y2290040D01*
X27894635Y2290373D01*
X27893747Y2290705D01*
X27892862Y2291148D01*
X27891922Y2291702D01*
X27891034Y2292255D01*
X27890924Y2292311D01*
X27890649Y2292532D01*
X27890259Y2292864D01*
X27889761Y2293307D01*
X27889209Y2293806D01*
X27888654Y2294415D01*
X27888046Y2295024D01*
X27887546Y2295744D01*
X27887491Y2295854D01*
X27887326Y2296076D01*
X27887103Y2296464D01*
X27886826Y2297017D01*
X27886496Y2297682D01*
X27886218Y2298457D01*
X27885886Y2299343D01*
X27885608Y2300340D01*
Y2300450D01*
X27885553Y2300616D01*
X27885498Y2300783D01*
X27885443Y2301336D01*
X27885333Y2302111D01*
X27885220Y2302997D01*
X27885110Y2304049D01*
X27885056Y2305212D01*
X27885001Y2306486D01*
Y2320273D01*
X27923318D01*
Y2305545D01*
D02*
G37*
G36*
X27913849Y2279907D02*
X27913959Y2279797D01*
X27914014Y2279575D01*
X27914182Y2279298D01*
X27914346Y2278966D01*
X27914569Y2278578D01*
X27915121Y2277637D01*
X27915732Y2276530D01*
X27916507Y2275422D01*
X27917392Y2274259D01*
X27918335Y2273097D01*
X27918390Y2273041D01*
X27918445Y2272986D01*
X27918610Y2272820D01*
X27918777Y2272598D01*
X27919330Y2272100D01*
X27919995Y2271435D01*
X27920770Y2270771D01*
X27921655Y2270051D01*
X27922543Y2269442D01*
X27923483Y2268888D01*
Y2265843D01*
X27885001D01*
Y2270549D01*
X27914957D01*
X27914899Y2270605D01*
X27914679Y2270882D01*
X27914346Y2271214D01*
X27913959Y2271768D01*
X27913461Y2272377D01*
X27912906Y2273152D01*
X27912299Y2274038D01*
X27911688Y2275035D01*
Y2275090D01*
X27911633Y2275145D01*
X27911411Y2275478D01*
X27911136Y2276031D01*
X27910803Y2276696D01*
X27910416Y2277471D01*
X27910028Y2278302D01*
X27909641Y2279132D01*
X27909308Y2279963D01*
X27913849D01*
Y2279907D01*
D02*
G37*
G36*
X28123318Y2380906D02*
X28089539D01*
Y2362024D01*
X28085001D01*
Y2386000D01*
X28123318D01*
Y2380906D01*
D02*
G37*
G36*
Y2328192D02*
X28118777D01*
Y2350839D01*
X28107092D01*
Y2329631D01*
X28102554D01*
Y2350839D01*
X28089539D01*
Y2327306D01*
X28085001D01*
Y2355933D01*
X28123318D01*
Y2328192D01*
D02*
G37*
G36*
Y2305545D02*
X28123260Y2304548D01*
X28123206Y2303440D01*
X28123096Y2302333D01*
X28122931Y2301226D01*
X28122763Y2300284D01*
Y2300229D01*
X28122708Y2300118D01*
Y2299952D01*
X28122598Y2299730D01*
X28122430Y2299121D01*
X28122153Y2298346D01*
X28121768Y2297460D01*
X28121268Y2296519D01*
X28120715Y2295578D01*
X28119995Y2294692D01*
X28119940Y2294636D01*
X28119885Y2294581D01*
X28119717Y2294415D01*
X28119553Y2294193D01*
X28118997Y2293640D01*
X28118222Y2292975D01*
X28117282Y2292255D01*
X28116174Y2291480D01*
X28114902Y2290760D01*
X28113461Y2290151D01*
X28113406D01*
X28113297Y2290096D01*
X28113074Y2289985D01*
X28112741Y2289930D01*
X28112354Y2289764D01*
X28111911Y2289653D01*
X28111411Y2289542D01*
X28110803Y2289376D01*
X28110193Y2289210D01*
X28109473Y2289099D01*
X28107925Y2288822D01*
X28106207Y2288656D01*
X28104324Y2288601D01*
X28104269D01*
X28104156D01*
X28103882D01*
X28103604D01*
X28103217Y2288656D01*
X28102774D01*
X28101721Y2288711D01*
X28100504Y2288878D01*
X28099231Y2289044D01*
X28097900Y2289321D01*
X28096573Y2289653D01*
X28096518D01*
X28096405Y2289708D01*
X28096240Y2289764D01*
X28096021Y2289819D01*
X28095410Y2290040D01*
X28094635Y2290373D01*
X28093747Y2290705D01*
X28092862Y2291148D01*
X28091922Y2291702D01*
X28091034Y2292255D01*
X28090924Y2292311D01*
X28090649Y2292532D01*
X28090259Y2292864D01*
X28089761Y2293307D01*
X28089209Y2293806D01*
X28088654Y2294415D01*
X28088046Y2295024D01*
X28087546Y2295744D01*
X28087491Y2295854D01*
X28087326Y2296076D01*
X28087103Y2296464D01*
X28086826Y2297017D01*
X28086496Y2297682D01*
X28086218Y2298457D01*
X28085886Y2299343D01*
X28085608Y2300340D01*
Y2300450D01*
X28085553Y2300616D01*
X28085498Y2300783D01*
X28085443Y2301336D01*
X28085333Y2302111D01*
X28085220Y2302997D01*
X28085110Y2304049D01*
X28085056Y2305212D01*
X28085001Y2306486D01*
Y2320273D01*
X28123318D01*
Y2305545D01*
D02*
G37*
G36*
X28095743Y2278800D02*
X28095688D01*
X28095575Y2278744D01*
X28095355Y2278689D01*
X28095078Y2278634D01*
X28094745Y2278578D01*
X28094357Y2278468D01*
X28093527Y2278191D01*
X28092529Y2277803D01*
X28091589Y2277305D01*
X28090704Y2276751D01*
X28089929Y2276087D01*
X28089871Y2275976D01*
X28089651Y2275754D01*
X28089374Y2275311D01*
X28089096Y2274758D01*
X28088766Y2274093D01*
X28088489Y2273263D01*
X28088266Y2272321D01*
X28088211Y2271325D01*
Y2270992D01*
X28088266Y2270771D01*
X28088321Y2270162D01*
X28088489Y2269387D01*
X28088766Y2268501D01*
X28089154Y2267559D01*
X28089706Y2266618D01*
X28090482Y2265732D01*
X28090591Y2265621D01*
X28090924Y2265344D01*
X28091422Y2265012D01*
X28092087Y2264569D01*
X28092917Y2264126D01*
X28093860Y2263794D01*
X28094968Y2263517D01*
X28096185Y2263406D01*
X28096240D01*
X28096350D01*
X28096518D01*
X28096738Y2263462D01*
X28097348Y2263517D01*
X28098068Y2263683D01*
X28098953Y2263905D01*
X28099838Y2264292D01*
X28100726Y2264846D01*
X28101556Y2265566D01*
X28101666Y2265677D01*
X28101889Y2265954D01*
X28102219Y2266397D01*
X28102609Y2267006D01*
X28102997Y2267781D01*
X28103329Y2268722D01*
X28103549Y2269774D01*
X28103659Y2270937D01*
Y2271435D01*
X28103604Y2271823D01*
X28103549Y2272321D01*
X28103439Y2272875D01*
X28103329Y2273540D01*
X28103162Y2274259D01*
X28107315Y2273706D01*
Y2273429D01*
X28107260Y2273207D01*
Y2272487D01*
X28107370Y2271878D01*
X28107480Y2271159D01*
X28107648Y2270328D01*
X28107925Y2269387D01*
X28108310Y2268501D01*
X28108810Y2267559D01*
Y2267504D01*
X28108865Y2267449D01*
X28109088Y2267172D01*
X28109473Y2266784D01*
X28109973Y2266341D01*
X28110693Y2265898D01*
X28111523Y2265511D01*
X28112463Y2265234D01*
X28113019Y2265123D01*
X28113626D01*
X28113681D01*
X28113739D01*
X28114069D01*
X28114514Y2265234D01*
X28115121Y2265344D01*
X28115787Y2265566D01*
X28116507Y2265843D01*
X28117227Y2266286D01*
X28117892Y2266895D01*
X28117947Y2266950D01*
X28118167Y2267227D01*
X28118445Y2267615D01*
X28118777Y2268113D01*
X28119052Y2268778D01*
X28119330Y2269553D01*
X28119553Y2270439D01*
X28119608Y2271435D01*
Y2271878D01*
X28119495Y2272377D01*
X28119385Y2273041D01*
X28119165Y2273761D01*
X28118887Y2274481D01*
X28118445Y2275256D01*
X28117892Y2275976D01*
X28117834Y2276031D01*
X28117557Y2276253D01*
X28117172Y2276585D01*
X28116617Y2276973D01*
X28115897Y2277360D01*
X28115012Y2277748D01*
X28113959Y2278080D01*
X28112741Y2278302D01*
X28113571Y2283008D01*
X28113626D01*
X28113794Y2282953D01*
X28114014Y2282897D01*
X28114346Y2282842D01*
X28114734Y2282731D01*
X28115176Y2282565D01*
X28116229Y2282233D01*
X28117447Y2281679D01*
X28118665Y2281015D01*
X28119830Y2280184D01*
X28120880Y2279132D01*
X28120935Y2279077D01*
X28120993Y2278966D01*
X28121103Y2278800D01*
X28121268Y2278578D01*
X28121490Y2278302D01*
X28121710Y2277914D01*
X28121933Y2277526D01*
X28122211Y2277028D01*
X28122653Y2275921D01*
X28123096Y2274647D01*
X28123373Y2273152D01*
X28123483Y2272377D01*
Y2270992D01*
X28123428Y2270383D01*
X28123318Y2269663D01*
X28123151Y2268778D01*
X28122873Y2267781D01*
X28122543Y2266784D01*
X28122098Y2265787D01*
Y2265732D01*
X28122043Y2265677D01*
X28121878Y2265344D01*
X28121545Y2264846D01*
X28121158Y2264292D01*
X28120605Y2263628D01*
X28119995Y2262963D01*
X28119275Y2262299D01*
X28118445Y2261745D01*
X28118335Y2261690D01*
X28118057Y2261524D01*
X28117557Y2261302D01*
X28116949Y2261025D01*
X28116229Y2260749D01*
X28115399Y2260527D01*
X28114459Y2260361D01*
X28113516Y2260306D01*
X28113406D01*
X28113074D01*
X28112631Y2260361D01*
X28112021Y2260472D01*
X28111301Y2260638D01*
X28110526Y2260915D01*
X28109750Y2261247D01*
X28108975Y2261690D01*
X28108865Y2261745D01*
X28108643Y2261911D01*
X28108255Y2262244D01*
X28107812Y2262687D01*
X28107315Y2263240D01*
X28106760Y2263905D01*
X28106262Y2264680D01*
X28105765Y2265621D01*
Y2265566D01*
X28105710Y2265455D01*
X28105652Y2265289D01*
X28105597Y2265068D01*
X28105377Y2264459D01*
X28105045Y2263683D01*
X28104602Y2262797D01*
X28104047Y2261911D01*
X28103329Y2261081D01*
X28102496Y2260306D01*
X28102386Y2260250D01*
X28102054Y2260029D01*
X28101501Y2259697D01*
X28100781Y2259364D01*
X28099896Y2259032D01*
X28098843Y2258700D01*
X28097626Y2258478D01*
X28096295Y2258423D01*
X28096240D01*
X28096075D01*
X28095798D01*
X28095465Y2258478D01*
X28095023Y2258534D01*
X28094525Y2258644D01*
X28093970Y2258755D01*
X28093362Y2258866D01*
X28092032Y2259309D01*
X28091312Y2259641D01*
X28090649Y2259973D01*
X28089929Y2260416D01*
X28089209Y2260915D01*
X28088489Y2261468D01*
X28087823Y2262133D01*
X28087769Y2262188D01*
X28087659Y2262299D01*
X28087491Y2262520D01*
X28087271Y2262797D01*
X28086993Y2263130D01*
X28086716Y2263573D01*
X28086383Y2264071D01*
X28086108Y2264680D01*
X28085776Y2265289D01*
X28085443Y2266009D01*
X28085165Y2266729D01*
X28084888Y2267559D01*
X28084668Y2268445D01*
X28084500Y2269387D01*
X28084390Y2270328D01*
X28084335Y2271380D01*
Y2271878D01*
X28084390Y2272211D01*
X28084445Y2272654D01*
X28084500Y2273152D01*
X28084613Y2273706D01*
X28084723Y2274315D01*
X28085056Y2275644D01*
X28085608Y2277028D01*
X28085941Y2277748D01*
X28086328Y2278412D01*
X28086826Y2279077D01*
X28087326Y2279741D01*
X28087381Y2279797D01*
X28087491Y2279907D01*
X28087659Y2280073D01*
X28087878Y2280240D01*
X28088156Y2280516D01*
X28088544Y2280793D01*
X28088931Y2281125D01*
X28089429Y2281458D01*
X28089984Y2281790D01*
X28090536Y2282122D01*
X28091867Y2282731D01*
X28093417Y2283230D01*
X28094247Y2283396D01*
X28095132Y2283506D01*
X28095743Y2278800D01*
D02*
G37*
G36*
X28023318Y2380906D02*
X27989539D01*
Y2362024D01*
X27985001D01*
Y2386000D01*
X28023318D01*
Y2380906D01*
D02*
G37*
G36*
Y2328192D02*
X28018777D01*
Y2350839D01*
X28007092D01*
Y2329631D01*
X28002554D01*
Y2350839D01*
X27989539D01*
Y2327306D01*
X27985001D01*
Y2355933D01*
X28023318D01*
Y2328192D01*
D02*
G37*
G36*
Y2305545D02*
X28023260Y2304548D01*
X28023206Y2303440D01*
X28023096Y2302333D01*
X28022928Y2301226D01*
X28022763Y2300284D01*
Y2300229D01*
X28022708Y2300118D01*
Y2299952D01*
X28022598Y2299730D01*
X28022430Y2299121D01*
X28022153Y2298346D01*
X28021768Y2297460D01*
X28021268Y2296519D01*
X28020715Y2295578D01*
X28019995Y2294692D01*
X28019940Y2294636D01*
X28019885Y2294581D01*
X28019717Y2294415D01*
X28019553Y2294193D01*
X28018997Y2293640D01*
X28018222Y2292975D01*
X28017282Y2292255D01*
X28016174Y2291480D01*
X28014902Y2290760D01*
X28013461Y2290151D01*
X28013406D01*
X28013297Y2290096D01*
X28013074Y2289985D01*
X28012741Y2289930D01*
X28012354Y2289764D01*
X28011911Y2289653D01*
X28011411Y2289542D01*
X28010803Y2289376D01*
X28010193Y2289210D01*
X28009473Y2289099D01*
X28007925Y2288822D01*
X28006207Y2288656D01*
X28004324Y2288601D01*
X28004269D01*
X28004156D01*
X28003882D01*
X28003604D01*
X28003217Y2288656D01*
X28002774D01*
X28001721Y2288711D01*
X28000504Y2288878D01*
X27999231Y2289044D01*
X27997900Y2289321D01*
X27996573Y2289653D01*
X27996518D01*
X27996405Y2289708D01*
X27996240Y2289764D01*
X27996021Y2289819D01*
X27995410Y2290040D01*
X27994635Y2290373D01*
X27993747Y2290705D01*
X27992862Y2291148D01*
X27991922Y2291702D01*
X27991034Y2292255D01*
X27990924Y2292311D01*
X27990649Y2292532D01*
X27990259Y2292864D01*
X27989761Y2293307D01*
X27989209Y2293806D01*
X27988654Y2294415D01*
X27988046Y2295024D01*
X27987546Y2295744D01*
X27987491Y2295854D01*
X27987326Y2296076D01*
X27987103Y2296464D01*
X27986826Y2297017D01*
X27986496Y2297682D01*
X27986218Y2298457D01*
X27985886Y2299343D01*
X27985608Y2300340D01*
Y2300450D01*
X27985553Y2300616D01*
X27985498Y2300783D01*
X27985443Y2301336D01*
X27985333Y2302111D01*
X27985220Y2302997D01*
X27985110Y2304049D01*
X27985056Y2305212D01*
X27985001Y2306486D01*
Y2320273D01*
X28023318D01*
Y2305545D01*
D02*
G37*
G36*
X27986053Y2284171D02*
X27986551Y2284116D01*
X27987103Y2284005D01*
X27987659Y2283894D01*
X27988266Y2283673D01*
X27988321D01*
X27988376Y2283617D01*
X27988708Y2283506D01*
X27989209Y2283285D01*
X27989871Y2282953D01*
X27990649Y2282510D01*
X27991534Y2281956D01*
X27992419Y2281347D01*
X27993362Y2280572D01*
X27993417D01*
X27993472Y2280461D01*
X27993805Y2280184D01*
X27994302Y2279686D01*
X27995023Y2278966D01*
X27995853Y2278135D01*
X27996848Y2277083D01*
X27997958Y2275810D01*
X27999121Y2274425D01*
X27999176Y2274370D01*
X27999341Y2274149D01*
X27999619Y2273816D01*
X27999951Y2273429D01*
X28000394Y2272930D01*
X28000891Y2272321D01*
X28001443Y2271712D01*
X28002054Y2270992D01*
X28003384Y2269608D01*
X28004712Y2268224D01*
X28005377Y2267559D01*
X28006042Y2266950D01*
X28006650Y2266397D01*
X28007260Y2265954D01*
X28007315D01*
X28007370Y2265843D01*
X28007535Y2265732D01*
X28007758Y2265621D01*
X28008368Y2265234D01*
X28009085Y2264791D01*
X28009973Y2264403D01*
X28010913Y2264016D01*
X28011966Y2263794D01*
X28012964Y2263683D01*
X28013019D01*
X28013074D01*
X28013406Y2263739D01*
X28013959Y2263794D01*
X28014569Y2263960D01*
X28015344Y2264182D01*
X28016119Y2264569D01*
X28016895Y2265068D01*
X28017670Y2265732D01*
X28017780Y2265843D01*
X28018002Y2266120D01*
X28018277Y2266507D01*
X28018665Y2267116D01*
X28018997Y2267892D01*
X28019330Y2268778D01*
X28019553Y2269830D01*
X28019608Y2270992D01*
Y2271325D01*
X28019553Y2271546D01*
X28019495Y2272211D01*
X28019330Y2272986D01*
X28019110Y2273816D01*
X28018719Y2274758D01*
X28018222Y2275644D01*
X28017557Y2276474D01*
X28017447Y2276585D01*
X28017172Y2276806D01*
X28016727Y2277139D01*
X28016064Y2277471D01*
X28015289Y2277859D01*
X28014291Y2278191D01*
X28013184Y2278412D01*
X28011911Y2278523D01*
X28012408Y2283340D01*
X28012463D01*
X28012631Y2283285D01*
X28012906D01*
X28013297Y2283230D01*
X28013739Y2283119D01*
X28014236Y2283008D01*
X28014844Y2282842D01*
X28015454Y2282676D01*
X28016782Y2282233D01*
X28018112Y2281568D01*
X28018777Y2281181D01*
X28019440Y2280683D01*
X28020050Y2280184D01*
X28020605Y2279630D01*
X28020660Y2279575D01*
X28020715Y2279464D01*
X28020880Y2279298D01*
X28021048Y2279021D01*
X28021268Y2278689D01*
X28021490Y2278302D01*
X28021768Y2277859D01*
X28022043Y2277305D01*
X28022321Y2276696D01*
X28022598Y2276031D01*
X28022818Y2275311D01*
X28023041Y2274536D01*
X28023206Y2273706D01*
X28023373Y2272820D01*
X28023428Y2271878D01*
X28023483Y2270882D01*
Y2270328D01*
X28023428Y2269940D01*
X28023373Y2269497D01*
X28023318Y2268944D01*
X28023206Y2268335D01*
X28023096Y2267725D01*
X28022708Y2266286D01*
X28022153Y2264846D01*
X28021823Y2264126D01*
X28021432Y2263406D01*
X28020935Y2262742D01*
X28020383Y2262133D01*
X28020328Y2262078D01*
X28020273Y2261967D01*
X28020050Y2261856D01*
X28019830Y2261635D01*
X28019553Y2261358D01*
X28019165Y2261081D01*
X28018777Y2260804D01*
X28018277Y2260472D01*
X28017227Y2259918D01*
X28015897Y2259364D01*
X28015234Y2259143D01*
X28014459Y2259032D01*
X28013681Y2258921D01*
X28012851Y2258866D01*
X28012741D01*
X28012463D01*
X28012021Y2258921D01*
X28011411Y2258977D01*
X28010748Y2259087D01*
X28009973Y2259309D01*
X28009143Y2259530D01*
X28008310Y2259863D01*
X28008200Y2259918D01*
X28007925Y2260029D01*
X28007480Y2260250D01*
X28006873Y2260582D01*
X28006207Y2261025D01*
X28005377Y2261579D01*
X28004547Y2262244D01*
X28003604Y2263019D01*
X28003494Y2263130D01*
X28003162Y2263406D01*
X28002884Y2263683D01*
X28002609Y2263960D01*
X28002277Y2264292D01*
X28001834Y2264735D01*
X28001389Y2265178D01*
X28000891Y2265732D01*
X28000339Y2266286D01*
X27999728Y2266950D01*
X27999121Y2267670D01*
X27998401Y2268445D01*
X27997681Y2269331D01*
X27996906Y2270217D01*
X27996848Y2270273D01*
X27996738Y2270383D01*
X27996573Y2270605D01*
X27996350Y2270882D01*
X27996021Y2271214D01*
X27995685Y2271602D01*
X27994968Y2272487D01*
X27994135Y2273429D01*
X27993304Y2274315D01*
X27992587Y2275090D01*
X27992310Y2275422D01*
X27992032Y2275699D01*
X27991977Y2275754D01*
X27991809Y2275921D01*
X27991589Y2276142D01*
X27991257Y2276419D01*
X27990869Y2276696D01*
X27990482Y2277028D01*
X27989539Y2277692D01*
Y2258811D01*
X27985001D01*
Y2284226D01*
X27985056D01*
X27985278D01*
X27985608D01*
X27986053Y2284171D01*
D02*
G37*
G36*
X28223318Y2380906D02*
X28189539D01*
Y2362024D01*
X28185001D01*
Y2386000D01*
X28223318D01*
Y2380906D01*
D02*
G37*
G36*
Y2328192D02*
X28218777D01*
Y2350839D01*
X28207092D01*
Y2329631D01*
X28202551D01*
Y2350839D01*
X28189539D01*
Y2327306D01*
X28185001D01*
Y2355933D01*
X28223318D01*
Y2328192D01*
D02*
G37*
G36*
Y2305545D02*
X28223260Y2304548D01*
X28223206Y2303440D01*
X28223096Y2302333D01*
X28222928Y2301226D01*
X28222763Y2300284D01*
Y2300229D01*
X28222708Y2300118D01*
Y2299952D01*
X28222598Y2299730D01*
X28222430Y2299121D01*
X28222153Y2298346D01*
X28221768Y2297460D01*
X28221268Y2296519D01*
X28220715Y2295578D01*
X28219995Y2294692D01*
X28219940Y2294636D01*
X28219885Y2294581D01*
X28219717Y2294415D01*
X28219553Y2294193D01*
X28218997Y2293640D01*
X28218222Y2292975D01*
X28217282Y2292255D01*
X28216174Y2291480D01*
X28214899Y2290760D01*
X28213461Y2290151D01*
X28213406D01*
X28213297Y2290096D01*
X28213074Y2289985D01*
X28212741Y2289930D01*
X28212354Y2289764D01*
X28211911Y2289653D01*
X28211411Y2289542D01*
X28210803Y2289376D01*
X28210193Y2289210D01*
X28209473Y2289099D01*
X28207925Y2288822D01*
X28206207Y2288656D01*
X28204324Y2288601D01*
X28204269D01*
X28204156D01*
X28203882D01*
X28203604D01*
X28203217Y2288656D01*
X28202774D01*
X28201721Y2288711D01*
X28200504Y2288878D01*
X28199231Y2289044D01*
X28197900Y2289321D01*
X28196573Y2289653D01*
X28196518D01*
X28196405Y2289708D01*
X28196240Y2289764D01*
X28196021Y2289819D01*
X28195410Y2290040D01*
X28194635Y2290373D01*
X28193747Y2290705D01*
X28192862Y2291148D01*
X28191922Y2291702D01*
X28191034Y2292255D01*
X28190924Y2292311D01*
X28190646Y2292532D01*
X28190259Y2292864D01*
X28189761Y2293307D01*
X28189209Y2293806D01*
X28188654Y2294415D01*
X28188046Y2295024D01*
X28187546Y2295744D01*
X28187491Y2295854D01*
X28187326Y2296076D01*
X28187103Y2296464D01*
X28186826Y2297017D01*
X28186496Y2297682D01*
X28186218Y2298457D01*
X28185886Y2299343D01*
X28185608Y2300340D01*
Y2300450D01*
X28185553Y2300616D01*
X28185498Y2300783D01*
X28185443Y2301336D01*
X28185333Y2302111D01*
X28185220Y2302997D01*
X28185110Y2304049D01*
X28185056Y2305212D01*
X28185001Y2306486D01*
Y2320273D01*
X28223318D01*
Y2305545D01*
D02*
G37*
G36*
Y2267615D02*
Y2263794D01*
X28198511D01*
Y2258589D01*
X28194193D01*
Y2263794D01*
X28185001D01*
Y2268501D01*
X28194193D01*
Y2285168D01*
X28198511D01*
X28223318Y2267615D01*
D02*
G37*
%LPC*%
G36*
X27918777Y2315179D02*
X27889539D01*
Y2306098D01*
X27889594Y2305711D01*
X27889651Y2304880D01*
X27889706Y2303939D01*
X27889816Y2302942D01*
X27889984Y2301945D01*
X27890204Y2301115D01*
X27890259Y2301004D01*
X27890314Y2300727D01*
X27890482Y2300340D01*
X27890704Y2299841D01*
X27891034Y2299288D01*
X27891367Y2298734D01*
X27891754Y2298180D01*
X27892197Y2297626D01*
X27892310Y2297571D01*
X27892529Y2297349D01*
X27892917Y2297017D01*
X27893472Y2296630D01*
X27894193Y2296187D01*
X27895023Y2295688D01*
X27895963Y2295245D01*
X27897015Y2294858D01*
X27897070D01*
X27897180Y2294802D01*
X27897348Y2294747D01*
X27897568Y2294692D01*
X27897845Y2294636D01*
X27898233Y2294526D01*
X27898621Y2294415D01*
X27899063Y2294304D01*
X27900171Y2294138D01*
X27901443Y2293972D01*
X27902884Y2293861D01*
X27904434Y2293806D01*
X27904492D01*
X27904712D01*
X27904990D01*
X27905432Y2293861D01*
X27905930D01*
X27906485Y2293916D01*
X27907147Y2293972D01*
X27907812Y2294027D01*
X27909308Y2294304D01*
X27910858Y2294636D01*
X27912299Y2295135D01*
X27913019Y2295467D01*
X27913626Y2295799D01*
X27913681D01*
X27913794Y2295910D01*
X27913959Y2296021D01*
X27914182Y2296131D01*
X27914734Y2296574D01*
X27915399Y2297128D01*
X27916119Y2297848D01*
X27916840Y2298678D01*
X27917447Y2299620D01*
X27917947Y2300616D01*
X27918002Y2300727D01*
X27918057Y2301004D01*
X27918222Y2301502D01*
X27918390Y2302222D01*
X27918500Y2303108D01*
X27918665Y2304216D01*
X27918719Y2304880D01*
Y2305600D01*
X27918777Y2306320D01*
Y2315179D01*
D02*
G37*
G36*
X28118777D02*
X28089539D01*
Y2306098D01*
X28089597Y2305711D01*
X28089651Y2304880D01*
X28089706Y2303939D01*
X28089816Y2302942D01*
X28089984Y2301945D01*
X28090204Y2301115D01*
X28090259Y2301004D01*
X28090314Y2300727D01*
X28090482Y2300340D01*
X28090704Y2299841D01*
X28091034Y2299288D01*
X28091367Y2298734D01*
X28091754Y2298180D01*
X28092197Y2297626D01*
X28092310Y2297571D01*
X28092529Y2297349D01*
X28092917Y2297017D01*
X28093472Y2296630D01*
X28094193Y2296187D01*
X28095023Y2295688D01*
X28095963Y2295245D01*
X28097015Y2294858D01*
X28097070D01*
X28097183Y2294802D01*
X28097348Y2294747D01*
X28097568Y2294692D01*
X28097845Y2294636D01*
X28098233Y2294526D01*
X28098621Y2294415D01*
X28099063Y2294304D01*
X28100171Y2294138D01*
X28101443Y2293972D01*
X28102884Y2293861D01*
X28104434Y2293806D01*
X28104492D01*
X28104712D01*
X28104990D01*
X28105432Y2293861D01*
X28105930D01*
X28106485Y2293916D01*
X28107150Y2293972D01*
X28107812Y2294027D01*
X28109308Y2294304D01*
X28110858Y2294636D01*
X28112299Y2295135D01*
X28113019Y2295467D01*
X28113626Y2295799D01*
X28113681D01*
X28113794Y2295910D01*
X28113959Y2296021D01*
X28114182Y2296131D01*
X28114734Y2296574D01*
X28115399Y2297128D01*
X28116119Y2297848D01*
X28116840Y2298678D01*
X28117447Y2299620D01*
X28117947Y2300616D01*
X28118002Y2300727D01*
X28118057Y2301004D01*
X28118222Y2301502D01*
X28118390Y2302222D01*
X28118500Y2303108D01*
X28118665Y2304216D01*
X28118719Y2304880D01*
Y2305600D01*
X28118777Y2306320D01*
Y2315179D01*
D02*
G37*
G36*
X28018777D02*
X27989539D01*
Y2306098D01*
X27989597Y2305711D01*
X27989651Y2304880D01*
X27989706Y2303939D01*
X27989816Y2302942D01*
X27989984Y2301945D01*
X27990204Y2301115D01*
X27990259Y2301004D01*
X27990314Y2300727D01*
X27990482Y2300340D01*
X27990704Y2299841D01*
X27991034Y2299288D01*
X27991367Y2298734D01*
X27991754Y2298180D01*
X27992197Y2297626D01*
X27992310Y2297571D01*
X27992529Y2297349D01*
X27992917Y2297017D01*
X27993472Y2296630D01*
X27994193Y2296187D01*
X27995023Y2295688D01*
X27995963Y2295245D01*
X27997015Y2294858D01*
X27997070D01*
X27997180Y2294802D01*
X27997348Y2294747D01*
X27997568Y2294692D01*
X27997845Y2294636D01*
X27998233Y2294526D01*
X27998621Y2294415D01*
X27999063Y2294304D01*
X28000171Y2294138D01*
X28001443Y2293972D01*
X28002884Y2293861D01*
X28004434Y2293806D01*
X28004492D01*
X28004712D01*
X28004990D01*
X28005432Y2293861D01*
X28005930D01*
X28006485Y2293916D01*
X28007147Y2293972D01*
X28007812Y2294027D01*
X28009308Y2294304D01*
X28010858Y2294636D01*
X28012299Y2295135D01*
X28013019Y2295467D01*
X28013626Y2295799D01*
X28013681D01*
X28013794Y2295910D01*
X28013959Y2296021D01*
X28014182Y2296131D01*
X28014734Y2296574D01*
X28015399Y2297128D01*
X28016119Y2297848D01*
X28016840Y2298678D01*
X28017447Y2299620D01*
X28017947Y2300616D01*
X28018002Y2300727D01*
X28018057Y2301004D01*
X28018222Y2301502D01*
X28018390Y2302222D01*
X28018500Y2303108D01*
X28018665Y2304216D01*
X28018719Y2304880D01*
Y2305600D01*
X28018777Y2306320D01*
Y2315179D01*
D02*
G37*
G36*
X28218777D02*
X28189539D01*
Y2306098D01*
X28189594Y2305711D01*
X28189651Y2304880D01*
X28189706Y2303939D01*
X28189816Y2302942D01*
X28189984Y2301945D01*
X28190204Y2301115D01*
X28190259Y2301004D01*
X28190314Y2300727D01*
X28190482Y2300340D01*
X28190704Y2299841D01*
X28191034Y2299288D01*
X28191367Y2298734D01*
X28191754Y2298180D01*
X28192197Y2297626D01*
X28192310Y2297571D01*
X28192529Y2297349D01*
X28192917Y2297017D01*
X28193472Y2296630D01*
X28194193Y2296187D01*
X28195023Y2295688D01*
X28195963Y2295245D01*
X28197015Y2294858D01*
X28197070D01*
X28197180Y2294802D01*
X28197348Y2294747D01*
X28197568Y2294692D01*
X28197845Y2294636D01*
X28198233Y2294526D01*
X28198621Y2294415D01*
X28199063Y2294304D01*
X28200171Y2294138D01*
X28201443Y2293972D01*
X28202884Y2293861D01*
X28204434Y2293806D01*
X28204489D01*
X28204712D01*
X28204990D01*
X28205432Y2293861D01*
X28205930D01*
X28206485Y2293916D01*
X28207147Y2293972D01*
X28207812Y2294027D01*
X28209308Y2294304D01*
X28210858Y2294636D01*
X28212299Y2295135D01*
X28213019Y2295467D01*
X28213626Y2295799D01*
X28213681D01*
X28213794Y2295910D01*
X28213959Y2296021D01*
X28214182Y2296131D01*
X28214734Y2296574D01*
X28215399Y2297128D01*
X28216119Y2297848D01*
X28216837Y2298678D01*
X28217447Y2299620D01*
X28217947Y2300616D01*
X28218002Y2300727D01*
X28218057Y2301004D01*
X28218222Y2301502D01*
X28218390Y2302222D01*
X28218500Y2303108D01*
X28218665Y2304216D01*
X28218719Y2304880D01*
Y2305600D01*
X28218777Y2306320D01*
Y2315179D01*
D02*
G37*
G36*
X28198511Y2280572D02*
Y2268501D01*
X28215677D01*
X28198511Y2280572D01*
D02*
G37*
%LPD*%
%TF.MD5,5e68bac6550997197199ad14d6502793*%
M02*
