%TF.GenerationSoftware,Altium Limited,Altium Designer,23.10.1 (27)*%
G04 Layer_Color=13278208*
%FSLAX45Y45*%
%MOMM*%
%TF.SameCoordinates,C732C167-A78C-4608-B65C-7F4C8643914A*%
%TF.FilePolarity,Positive*%
%TF.FileFunction,Coverlay,Top_pi_Coverlay_(pogo_stack)*%
%TF.Part,Single*%
G01*
G75*
%TA.AperFunction,Profile*%
%ADD53C,0.02540*%
G36*
X26977161Y3036462D02*
X26990158Y3034750D01*
X26991464Y3034491D01*
X27004123Y3031098D01*
X27004126Y3031098D01*
X27004553Y3030953D01*
X27005386Y3030670D01*
X27005386Y3030669D01*
X27017496Y3025653D01*
X27018692Y3025064D01*
X27018695Y3025063D01*
X27030045Y3018510D01*
X27030783Y3018015D01*
X27031152Y3017770D01*
X27041550Y3009790D01*
X27042551Y3008912D01*
Y3008912D01*
X27042551D01*
X27051822Y2999642D01*
Y2999642D01*
X27051822D01*
X27052701Y2998641D01*
X27060681Y2988241D01*
X27061420Y2987134D01*
X27061420Y2987132D01*
X27067975Y2975782D01*
X27067975Y2975781D01*
D01*
X27068564Y2974587D01*
X27073581Y2962476D01*
X27074008Y2961215D01*
X27074008Y2961214D01*
X27077399Y2948554D01*
X27077399Y2948553D01*
X27077661Y2947247D01*
X27079370Y2934250D01*
X27079459Y2932921D01*
Y2932921D01*
D01*
Y2926367D01*
Y2919813D01*
X27079370Y2918484D01*
X27077661Y2905487D01*
X27077399Y2904181D01*
X27074008Y2891519D01*
X27074008Y2891518D01*
X27073862Y2891090D01*
X27073581Y2890258D01*
X27073578Y2890256D01*
X27068564Y2878147D01*
X27067975Y2876952D01*
X27067972Y2876949D01*
X27061420Y2865600D01*
X27060925Y2864860D01*
X27060681Y2864493D01*
X27052701Y2854093D01*
X27051822Y2853091D01*
X27051822D01*
Y2853091D01*
X27042551Y2843822D01*
X27042551D01*
Y2843822D01*
X27041550Y2842944D01*
X27031152Y2834964D01*
X27030042Y2834224D01*
X27030042Y2834223D01*
X27018692Y2827669D01*
X27018692Y2827669D01*
D01*
X27017496Y2827080D01*
X27005386Y2822064D01*
X27004126Y2821636D01*
X27004123Y2821635D01*
X26991464Y2818243D01*
X26991464Y2818243D01*
X26990158Y2817983D01*
X26977161Y2816272D01*
X26975830Y2816185D01*
X26975830D01*
D01*
X26962723D01*
X26961392Y2816272D01*
X26948395Y2817983D01*
X26947089Y2818243D01*
X26934430Y2821635D01*
X26934427Y2821636D01*
X26934000Y2821781D01*
X26933167Y2822064D01*
X26933167Y2822065D01*
X26921057Y2827080D01*
X26919861Y2827669D01*
X26919858Y2827671D01*
X26908508Y2834224D01*
X26907770Y2834718D01*
X26907401Y2834964D01*
X26897003Y2842944D01*
X26896002Y2843822D01*
Y2843822D01*
X26896002D01*
X26886731Y2853091D01*
Y2853091D01*
X26886731D01*
X26885852Y2854093D01*
X26877872Y2864493D01*
X26877133Y2865600D01*
X26877133Y2865601D01*
X26870578Y2876952D01*
X26870578Y2876952D01*
D01*
X26869989Y2878147D01*
X26864972Y2890258D01*
X26864545Y2891519D01*
X26864545Y2891520D01*
X26861154Y2904179D01*
X26861154Y2904180D01*
X26860892Y2905487D01*
X26859183Y2918483D01*
X26859094Y2919812D01*
Y2919813D01*
D01*
Y2926367D01*
Y2932921D01*
X26859183Y2934250D01*
X26860892Y2947247D01*
X26861154Y2948553D01*
X26864545Y2961214D01*
X26864545Y2961215D01*
X26864691Y2961643D01*
X26864972Y2962476D01*
X26864975Y2962478D01*
X26869989Y2974587D01*
X26870578Y2975781D01*
X26870581Y2975784D01*
X26877133Y2987134D01*
X26877628Y2987874D01*
X26877872Y2988241D01*
X26885852Y2998641D01*
X26886731Y2999642D01*
X26886731D01*
Y2999642D01*
X26896002Y3008912D01*
X26896002D01*
Y3008912D01*
X26897003Y3009790D01*
X26907401Y3017770D01*
X26908511Y3018510D01*
X26908511Y3018510D01*
X26919861Y3025064D01*
X26919861Y3025064D01*
D01*
X26921057Y3025653D01*
X26933167Y3030670D01*
X26934427Y3031098D01*
X26934430Y3031098D01*
X26947089Y3034490D01*
X26947089Y3034491D01*
X26948395Y3034750D01*
X26961392Y3036462D01*
X26962723Y3036549D01*
X26962723D01*
D01*
X26975830D01*
X26977161Y3036462D01*
D02*
G37*
G36*
Y4058665D02*
X26990158Y4056954D01*
X26991464Y4056694D01*
X27004123Y4053302D01*
X27004126Y4053302D01*
X27004553Y4053156D01*
X27005386Y4052874D01*
X27005386Y4052873D01*
X27017496Y4047857D01*
X27018692Y4047268D01*
X27018695Y4047266D01*
X27030045Y4040714D01*
X27030783Y4040219D01*
X27031152Y4039974D01*
X27041550Y4031994D01*
X27042551Y4031116D01*
Y4031116D01*
X27042551D01*
X27051822Y4021846D01*
Y4021846D01*
X27051822D01*
X27052701Y4020845D01*
X27060681Y4010445D01*
X27061420Y4009338D01*
X27061420Y4009336D01*
X27067975Y3997986D01*
X27067975Y3997985D01*
D01*
X27068564Y3996791D01*
X27073581Y3984680D01*
X27074008Y3983419D01*
X27074008Y3983418D01*
X27077399Y3970758D01*
X27077399Y3970757D01*
X27077661Y3969451D01*
X27079370Y3956454D01*
X27079459Y3955125D01*
Y3955125D01*
D01*
Y3948571D01*
Y3942016D01*
X27079370Y3940688D01*
X27077661Y3927691D01*
X27077399Y3926385D01*
X27074008Y3913723D01*
X27074008Y3913722D01*
X27073862Y3913294D01*
X27073581Y3912462D01*
X27073578Y3912460D01*
X27068564Y3900351D01*
X27067975Y3899156D01*
X27067972Y3899153D01*
X27061420Y3887804D01*
X27060925Y3887064D01*
X27060681Y3886697D01*
X27052701Y3876297D01*
X27051822Y3875295D01*
X27051822D01*
Y3875295D01*
X27042551Y3866026D01*
X27042551D01*
Y3866026D01*
X27041550Y3865147D01*
X27031152Y3857168D01*
X27030042Y3856428D01*
X27030042Y3856427D01*
X27018692Y3849873D01*
X27018692Y3849873D01*
D01*
X27017496Y3849284D01*
X27005386Y3844268D01*
X27004126Y3843840D01*
X27004123Y3843839D01*
X26991464Y3840447D01*
X26991464Y3840447D01*
X26990158Y3840187D01*
X26977161Y3838476D01*
X26975830Y3838389D01*
X26975830D01*
D01*
X26962723D01*
X26961392Y3838476D01*
X26948395Y3840187D01*
X26947089Y3840447D01*
X26934430Y3843839D01*
X26934427Y3843840D01*
X26934000Y3843985D01*
X26933167Y3844268D01*
X26933167Y3844269D01*
X26921057Y3849284D01*
X26919861Y3849873D01*
X26919858Y3849875D01*
X26908508Y3856428D01*
X26907770Y3856922D01*
X26907401Y3857168D01*
X26897003Y3865147D01*
X26896002Y3866026D01*
Y3866026D01*
X26896002D01*
X26886731Y3875295D01*
Y3875295D01*
X26886731D01*
X26885852Y3876297D01*
X26877872Y3886697D01*
X26877133Y3887804D01*
X26877133Y3887805D01*
X26870578Y3899156D01*
X26870578Y3899156D01*
D01*
X26869989Y3900351D01*
X26864972Y3912462D01*
X26864545Y3913723D01*
X26864545Y3913724D01*
X26861154Y3926383D01*
X26861154Y3926384D01*
X26860892Y3927691D01*
X26859183Y3940687D01*
X26859094Y3942016D01*
Y3942016D01*
D01*
Y3948571D01*
Y3955125D01*
X26859183Y3956454D01*
X26860892Y3969451D01*
X26861154Y3970757D01*
X26864545Y3983418D01*
X26864545Y3983419D01*
X26864691Y3983847D01*
X26864972Y3984680D01*
X26864975Y3984682D01*
X26869989Y3996791D01*
X26870578Y3997985D01*
X26870581Y3997988D01*
X26877133Y4009338D01*
X26877628Y4010078D01*
X26877872Y4010445D01*
X26885852Y4020845D01*
X26886731Y4021846D01*
X26886731D01*
Y4021846D01*
X26896002Y4031116D01*
X26896002D01*
Y4031116D01*
X26897003Y4031994D01*
X26907401Y4039974D01*
X26908511Y4040714D01*
X26908511Y4040714D01*
X26919861Y4047268D01*
X26919861Y4047268D01*
D01*
X26921057Y4047857D01*
X26933167Y4052874D01*
X26934427Y4053302D01*
X26934430Y4053302D01*
X26947089Y4056694D01*
X26947089Y4056694D01*
X26948395Y4056954D01*
X26961392Y4058665D01*
X26962723Y4058753D01*
X26962723D01*
D01*
X26975830D01*
X26977161Y4058665D01*
D02*
G37*
D53*
X27107703Y3033545D02*
Y2821600D01*
X26715399D01*
Y3034600D01*
X26716501Y3035700D01*
X27107703Y3033545D01*
X27217017Y4054969D02*
Y3829167D01*
X26837656Y3832133D01*
Y4056833D01*
X26839157Y4058332D01*
X27217017Y4054969D01*
%TF.MD5,2fe5f0440c6d120f531c590366415e86*%
M02*
