%TF.GenerationSoftware,Altium Limited,Altium Designer,23.10.1 (27)*%
G04 Layer_Color=32768*
%FSLAX45Y45*%
%MOMM*%
%TF.SameCoordinates,C732C167-A78C-4608-B65C-7F4C8643914A*%
%TF.FilePolarity,Positive*%
%TF.FileFunction,Other,Eco2.User*%
%TF.Part,Single*%
G01*
G75*
%TA.AperFunction,NonConductor*%
%ADD31C,0.10000*%
%ADD52C,0.05000*%
D31*
X28697699Y2224500D02*
Y2324500D01*
X28647699Y2274500D02*
X28747699D01*
X29404001Y2218800D02*
Y2318800D01*
X29354001Y2268800D02*
X29454001D01*
X29842700Y2210500D02*
Y2310500D01*
X29792700Y2260500D02*
X29892700D01*
X29515201Y2543800D02*
Y2598800D01*
X29487701Y2571300D02*
X29542700D01*
D52*
X28287701Y2014500D02*
Y2534500D01*
Y2014500D02*
X29107700D01*
Y2534500D01*
X28287701D02*
X29107700D01*
X29146500Y2526300D02*
X29661499D01*
X29146500Y2011300D02*
X29661499D01*
Y2526300D01*
X29146500Y2011300D02*
Y2526300D01*
X29672699Y2420500D02*
X30012701D01*
X29672699Y2100500D02*
Y2420500D01*
Y2100500D02*
X30012701D01*
Y2420500D01*
X27387701Y3102000D02*
Y3564000D01*
X28397699D01*
Y3102000D02*
Y3564000D01*
X27387701Y3102000D02*
X28397699D01*
X29440201Y2611300D02*
X29590201D01*
X29440201Y2531300D02*
X29590201D01*
X29440201D02*
Y2611300D01*
X29590201Y2531300D02*
Y2611300D01*
%TF.MD5,6ff479a9e8f06ee38c82be2701c1c5f0*%
M02*
