%TF.GenerationSoftware,Altium Limited,Altium Designer,23.10.1 (27)*%
G04 Layer_Color=13278208*
%FSLAX45Y45*%
%MOMM*%
%TF.SameCoordinates,C732C167-A78C-4608-B65C-7F4C8643914A*%
%TF.FilePolarity,Positive*%
%TF.FileFunction,Coverlay,Top_pi_Coverlay_(flex_section)*%
%TF.Part,Single*%
G01*
G75*
%TA.AperFunction,Profile*%
%ADD53C,0.02540*%
D53*
X29723901Y4300288D02*
Y2626178D01*
X28413748Y2626228D01*
X28413287Y2725600D01*
X28398483Y2755369D01*
X28392685Y2766563D01*
X28385645Y2782137D01*
X28379483Y2793804D01*
X28356299Y2809700D01*
X28341101Y2820400D01*
X28339227Y2819224D01*
X27107703Y2821486D01*
Y2821600D01*
X27107697Y3033545D01*
Y3034500D01*
X28316095D01*
X28411667Y3077587D01*
X28457993Y3176398D01*
Y3677999D01*
X28439194Y3757998D01*
X28401596Y3795596D01*
X28389572Y3807614D01*
X28316492Y3824395D01*
Y3828698D01*
X28081393D01*
Y3904699D01*
X28050992D01*
Y3657500D01*
X28050812Y3657319D01*
X27550699D01*
Y3904406D01*
X27550992Y3904699D01*
X27520593D01*
Y3828698D01*
X27217700D01*
Y4054500D01*
X27408395D01*
X27725900Y4201400D01*
X28406467Y4206230D01*
X28439191Y4224216D01*
X28457993Y4257798D01*
Y4301098D01*
X29723093D01*
X29723901Y4300288D01*
%TF.MD5,fa2c8387a75e81b91f39d1fcc5aa68fb*%
M02*
