%TF.GenerationSoftware,Altium Limited,Altium Designer,23.10.1 (27)*%
G04 Layer_Color=32768*
%FSLAX45Y45*%
%MOMM*%
%TF.SameCoordinates,C732C167-A78C-4608-B65C-7F4C8643914A*%
%TF.FilePolarity,Positive*%
%TF.FileFunction,Other,Top_Courtyard*%
%TF.Part,Single*%
G01*
G75*
%TA.AperFunction,NonConductor*%
%ADD52C,0.05000*%
D52*
X27870200Y2259000D02*
X27925201D01*
X27897699Y2231500D02*
Y2286500D01*
X27852701Y2169000D02*
Y2349000D01*
X27942700Y2169000D02*
Y2349000D01*
X27852701Y2169000D02*
X27942700D01*
X27852701Y2349000D02*
X27942700D01*
X28070200Y2259000D02*
X28125201D01*
X28097699Y2231500D02*
Y2286500D01*
X28052701Y2169000D02*
Y2349000D01*
X28142700Y2169000D02*
Y2349000D01*
X28052701Y2169000D02*
X28142700D01*
X28052701Y2349000D02*
X28142700D01*
X27970200Y2259000D02*
X28025201D01*
X27997699Y2231500D02*
Y2286500D01*
X27952701Y2169000D02*
Y2349000D01*
X28042700Y2169000D02*
Y2349000D01*
X27952701Y2169000D02*
X28042700D01*
X27952701Y2349000D02*
X28042700D01*
X28170200Y2259000D02*
X28225201D01*
X28197699Y2231500D02*
Y2286500D01*
X28152701Y2169000D02*
Y2349000D01*
X28242700Y2169000D02*
Y2349000D01*
X28152701Y2169000D02*
X28242700D01*
X28152701Y2349000D02*
X28242700D01*
%TF.MD5,c6e636d2454fbb6fd691fe3a23a205d1*%
M02*
