%TF.GenerationSoftware,Altium Limited,Altium Designer,23.10.1 (27)*%
G04 Layer_Color=8388736*
%FSLAX45Y45*%
%MOMM*%
%TF.SameCoordinates,C732C167-A78C-4608-B65C-7F4C8643914A*%
%TF.FilePolarity,Negative*%
%TF.FileFunction,Soldermask,Top*%
%TF.Part,Single*%
G01*
G75*
%TA.AperFunction,SMDPad,CuDef*%
%ADD34R,1.90320X1.20320*%
%ADD35O,0.45320X1.05320*%
%ADD36O,1.05320X0.45320*%
%ADD37R,2.65320X2.65320*%
%ADD38R,0.50320X0.50320*%
%ADD39R,1.20320X2.90320*%
%ADD40R,0.70320X0.65320*%
G04:AMPARAMS|DCode=41|XSize=0.7532mm|YSize=0.7032mm|CornerRadius=0.1641mm|HoleSize=0mm|Usage=FLASHONLY|Rotation=0.000|XOffset=0mm|YOffset=0mm|HoleType=Round|Shape=RoundedRectangle|*
%AMROUNDEDRECTD41*
21,1,0.75320,0.37500,0,0,0.0*
21,1,0.42500,0.70320,0,0,0.0*
1,1,0.32820,0.21250,-0.18750*
1,1,0.32820,-0.21250,-0.18750*
1,1,0.32820,-0.21250,0.18750*
1,1,0.32820,0.21250,0.18750*
%
%ADD41ROUNDEDRECTD41*%
%ADD42R,0.50320X0.50320*%
%TA.AperFunction,ComponentPad*%
%ADD43O,1.80320X1.30320*%
%ADD44C,0.91320*%
%TA.AperFunction,ViaPad*%
%ADD45C,0.60320*%
%ADD46C,0.70320*%
%ADD47C,1.00320*%
D34*
X29012698Y2464500D02*
D03*
X28382700D02*
D03*
X29012698Y2084500D02*
D03*
X28382700D02*
D03*
D35*
X29529001Y2458800D02*
D03*
X29479001D02*
D03*
X29429001D02*
D03*
X29379001D02*
D03*
X29329001D02*
D03*
X29279001D02*
D03*
Y2078800D02*
D03*
X29329001D02*
D03*
X29379001D02*
D03*
X29429001D02*
D03*
X29479001D02*
D03*
X29529001D02*
D03*
D36*
X29214001Y2393800D02*
D03*
Y2343800D02*
D03*
Y2293800D02*
D03*
Y2243800D02*
D03*
Y2193800D02*
D03*
Y2143800D02*
D03*
X29594000D02*
D03*
Y2193800D02*
D03*
Y2243800D02*
D03*
Y2293800D02*
D03*
Y2343800D02*
D03*
Y2393800D02*
D03*
D37*
X29404001Y2268800D02*
D03*
D38*
X29783701Y2496500D02*
D03*
X29723700D02*
D03*
X29702701Y1975500D02*
D03*
X29762701D02*
D03*
X29702701Y2057500D02*
D03*
X29762701D02*
D03*
X29503699Y1971500D02*
D03*
X29563699D02*
D03*
X29296600Y1969100D02*
D03*
X29356601D02*
D03*
X29225400Y1968800D02*
D03*
X29165399D02*
D03*
X29785699Y2577500D02*
D03*
X29725699D02*
D03*
D39*
X29952701Y2260500D02*
D03*
X29732700D02*
D03*
D40*
X29477701Y2571300D02*
D03*
X29552701D02*
D03*
D41*
X27897699Y2213500D02*
D03*
Y2304500D02*
D03*
X28097699Y2213500D02*
D03*
Y2304500D02*
D03*
X27997699Y2213500D02*
D03*
Y2304500D02*
D03*
X28197699Y2213500D02*
D03*
Y2304500D02*
D03*
D42*
X29859698Y2553500D02*
D03*
Y2493500D02*
D03*
D43*
X27492700Y3476000D02*
D03*
Y3190000D02*
D03*
X28292700D02*
D03*
Y3476000D02*
D03*
D44*
X27492700Y3333000D02*
D03*
X28292700D02*
D03*
D45*
X29846399Y2440700D02*
D03*
X29655576Y2473705D02*
D03*
X29527005Y2512594D02*
D03*
X29778900Y2458500D02*
D03*
X29653601Y2413100D02*
D03*
X28533838Y2497239D02*
D03*
X28804547Y2462272D02*
D03*
X28959235D02*
D03*
X28655518Y2456613D02*
D03*
X28395200Y2473600D02*
D03*
X29955499Y2250700D02*
D03*
X29991901Y2333500D02*
D03*
X30060300Y2143400D02*
D03*
X30072101Y2026900D02*
D03*
X29969101Y2020900D02*
D03*
X29939200Y2362400D02*
D03*
X29941599Y2545900D02*
D03*
X30036600Y2561200D02*
D03*
X29987701Y2504500D02*
D03*
X29102399Y1970400D02*
D03*
X29426700Y2590500D02*
D03*
X29624301Y1989500D02*
D03*
X29421500Y1970900D02*
D03*
X29787701Y2018500D02*
D03*
D46*
X29459000Y2323800D02*
D03*
Y2213800D02*
D03*
X29348999Y2323800D02*
D03*
Y2213800D02*
D03*
D47*
X27697699Y3244500D02*
D03*
X28035468Y3349349D02*
D03*
%TF.MD5,34412ee8ee90691acb4ea65763cacdb5*%
M02*
