%TF.GenerationSoftware,Altium Limited,Altium Designer,23.10.1 (27)*%
G04 Layer_Color=0*
%FSLAX45Y45*%
%MOMM*%
%TF.SameCoordinates,C732C167-A78C-4608-B65C-7F4C8643914A*%
%TF.FilePolarity,Positive*%
%TF.FileFunction,Plated,1,4,PTH,Drill*%
%TF.Part,Single*%
G01*
G75*
%TA.AperFunction,ComponentDrill*%
%ADD55O,1.10000X0.60000*%
%TA.AperFunction,ViaDrill,NotFilled*%
%ADD56C,0.30000*%
%ADD57C,0.20000*%
%ADD58C,0.40000*%
D55*
X27492700Y3476000D02*
D03*
Y3190000D02*
D03*
X28292700D02*
D03*
Y3476000D02*
D03*
D56*
X29846399Y2440700D02*
D03*
X29655576Y2473705D02*
D03*
X29527005Y2512594D02*
D03*
X29778900Y2458500D02*
D03*
X29653601Y2413100D02*
D03*
X28533838Y2497239D02*
D03*
X28804547Y2462272D02*
D03*
X28959235D02*
D03*
X28655518Y2456613D02*
D03*
X28395200Y2473600D02*
D03*
X29955499Y2250700D02*
D03*
X29991901Y2333500D02*
D03*
X30060300Y2143400D02*
D03*
X30072101Y2026900D02*
D03*
X29969101Y2020900D02*
D03*
X29939200Y2362400D02*
D03*
X29941599Y2545900D02*
D03*
X30036600Y2561200D02*
D03*
X29987701Y2504500D02*
D03*
X29102399Y1970400D02*
D03*
X29426700Y2590500D02*
D03*
X29624301Y1989500D02*
D03*
X29421500Y1970900D02*
D03*
D57*
X29459000Y2323800D02*
D03*
Y2213800D02*
D03*
X29348999Y2323800D02*
D03*
Y2213800D02*
D03*
X29787701Y2018500D02*
D03*
D58*
X27697699Y3244500D02*
D03*
X28035468Y3349349D02*
D03*
%TF.MD5,ac8fbf41c2003bd6ea13031b5c60855f*%
M02*
