G04*
G04 #@! TF.GenerationSoftware,Altium Limited,Altium Designer,23.10.1 (27)*
G04*
G04 Layer_Color=32768*
%FSLAX44Y44*%
%MOMM*%
G71*
G04*
G04 #@! TF.SameCoordinates,EE71AB0A-04B5-4847-A965-A32D4C1E190E*
G04*
G04*
G04 #@! TF.FilePolarity,Positive*
G04*
G01*
G75*
%ADD11C,0.1000*%
%ADD59C,0.0500*%
D11*
X2265300Y61750D02*
Y67250D01*
X2262550Y64500D02*
X2268050D01*
X2180910Y30220D02*
X2190910D01*
X2185910Y25220D02*
Y35220D01*
X2297300Y34500D02*
X2307300D01*
X2302300Y29500D02*
Y39500D01*
X2252030Y34030D02*
X2262030D01*
X2257030Y29030D02*
Y39030D01*
D59*
X2257800Y60500D02*
X2272800D01*
X2257800Y68500D02*
X2272800D01*
Y60500D02*
Y68500D01*
X2257800Y60500D02*
Y68500D01*
X2144910Y56220D02*
X2226910D01*
Y4220D02*
Y56220D01*
X2144910Y4220D02*
X2226910D01*
X2144910D02*
Y56220D01*
X2319300Y18500D02*
Y50500D01*
X2285300Y18500D02*
X2319300D01*
X2285300D02*
Y50500D01*
X2319300D01*
X2231280Y8280D02*
Y59780D01*
X2282780Y8280D02*
Y59780D01*
X2231280Y8280D02*
X2282780D01*
X2231280Y59780D02*
X2282780D01*
M02*
