G04*
G04 #@! TF.GenerationSoftware,Altium Limited,Altium Designer,23.10.1 (27)*
G04*
G04 Layer_Color=255*
%FSLAX44Y44*%
%MOMM*%
G71*
G04*
G04 #@! TF.SameCoordinates,EE71AB0A-04B5-4847-A965-A32D4C1E190E*
G04*
G04*
G04 #@! TF.FilePolarity,Positive*
G04*
G01*
G75*
%ADD15R,0.3000X0.3000*%
%ADD16R,0.8000X1.2000*%
%ADD17R,0.7000X1.2000*%
%ADD18R,0.7600X1.2000*%
%ADD19R,0.5000X0.4500*%
G04:AMPARAMS|DCode=20|XSize=0.55mm|YSize=0.5mm|CornerRadius=0.0625mm|HoleSize=0mm|Usage=FLASHONLY|Rotation=0.000|XOffset=0mm|YOffset=0mm|HoleType=Round|Shape=RoundedRectangle|*
%AMROUNDEDRECTD20*
21,1,0.5500,0.3750,0,0,0.0*
21,1,0.4250,0.5000,0,0,0.0*
1,1,0.1250,0.2125,-0.1875*
1,1,0.1250,-0.2125,-0.1875*
1,1,0.1250,-0.2125,0.1875*
1,1,0.1250,0.2125,0.1875*
%
%ADD20ROUNDEDRECTD20*%
%ADD21R,1.7000X1.0000*%
%ADD22R,1.0000X2.7000*%
%ADD23R,0.3000X0.3000*%
%ADD24R,2.4500X2.4500*%
%ADD25O,0.8500X0.2500*%
%ADD26O,0.2500X0.8500*%
G04:AMPARAMS|DCode=38|XSize=1.1mm|YSize=1.7mm|CornerRadius=0.55mm|HoleSize=0mm|Usage=FLASHONLY|Rotation=180.000|XOffset=0mm|YOffset=0mm|HoleType=Round|Shape=RoundedRectangle|*
%AMROUNDEDRECTD38*
21,1,1.1000,0.6000,0,0,180.0*
21,1,0.0000,1.7000,0,0,180.0*
1,1,1.1000,0.0000,0.3000*
1,1,1.1000,0.0000,0.3000*
1,1,1.1000,0.0000,-0.3000*
1,1,1.1000,0.0000,-0.3000*
%
%ADD38ROUNDEDRECTD38*%
D15*
X2090300Y309200D02*
D03*
X2084300D02*
D03*
X2059800Y308600D02*
D03*
X2065800D02*
D03*
X2286300Y5500D02*
D03*
X2292300D02*
D03*
X2286300Y14500D02*
D03*
X2292300D02*
D03*
X2265300Y4500D02*
D03*
X2271300D02*
D03*
X2244300D02*
D03*
X2250300D02*
D03*
X2237300D02*
D03*
X2231300D02*
D03*
X2286300Y55500D02*
D03*
X2292300D02*
D03*
Y63500D02*
D03*
X2286300D02*
D03*
D16*
X2052200Y322200D02*
D03*
X2107200D02*
D03*
D17*
X2084700D02*
D03*
X2074700D02*
D03*
D18*
X2094900D02*
D03*
X2064500D02*
D03*
D19*
X2269050Y64500D02*
D03*
X2261550D02*
D03*
D20*
X2090660Y26940D02*
D03*
Y36040D02*
D03*
X2118600Y26940D02*
D03*
Y36040D02*
D03*
X2104630Y26940D02*
D03*
Y36040D02*
D03*
X2132570Y26940D02*
D03*
Y36040D02*
D03*
D21*
X2154410Y11220D02*
D03*
X2217410D02*
D03*
X2154410Y49220D02*
D03*
X2217410D02*
D03*
D22*
X2291300Y34500D02*
D03*
X2313300D02*
D03*
D23*
X2301300Y62500D02*
D03*
Y56500D02*
D03*
D24*
X2257030Y34030D02*
D03*
D25*
X2276030Y46530D02*
D03*
Y41530D02*
D03*
Y36530D02*
D03*
Y31530D02*
D03*
Y26530D02*
D03*
Y21530D02*
D03*
X2238030D02*
D03*
Y26530D02*
D03*
Y31530D02*
D03*
Y36530D02*
D03*
Y41530D02*
D03*
Y46530D02*
D03*
D26*
X2269530Y15030D02*
D03*
X2264530D02*
D03*
X2259530D02*
D03*
X2254530D02*
D03*
X2249530D02*
D03*
X2244530D02*
D03*
Y53030D02*
D03*
X2249530D02*
D03*
X2254530D02*
D03*
X2259530D02*
D03*
X2264530D02*
D03*
X2269530D02*
D03*
D38*
X2036500Y322200D02*
D03*
Y360200D02*
D03*
X2122900Y322200D02*
D03*
Y360200D02*
D03*
M02*
