G04*
G04 #@! TF.GenerationSoftware,Altium Limited,Altium Designer,23.10.1 (27)*
G04*
G04 Layer_Color=16711935*
%FSLAX44Y44*%
%MOMM*%
G71*
G04*
G04 #@! TF.SameCoordinates,EE71AB0A-04B5-4847-A965-A32D4C1E190E*
G04*
G04*
G04 #@! TF.FilePolarity,Positive*
G04*
G01*
G75*
%ADD58C,0.0127*%
D58*
X1996427Y205288D02*
G03*
X1996427Y205288I-10000J0D01*
G01*
X2005515Y103959D02*
G03*
X2005515Y103959I-10000J0D01*
G01*
X2107600Y215900D02*
X2141055D01*
X2102600D02*
X2107600D01*
X2047600Y216750D02*
X2052600D01*
X2102800Y308300D02*
X2126428D01*
X2030457D02*
Y330643D01*
Y308300D02*
X2036043D01*
X2052800D01*
X2021835Y194129D02*
Y216750D01*
X2009541Y93155D02*
Y114616D01*
X2030457Y330643D02*
Y363284D01*
X2126428D01*
X2034628Y337300D02*
Y392284D01*
X2102600Y215900D02*
Y300384D01*
X2141055Y215900D02*
Y241373D01*
X2267565D01*
Y70064D02*
Y241373D01*
Y70064D02*
X2327831D01*
Y63D02*
Y70064D01*
X2077647Y63D02*
X2327831D01*
X2077647D02*
Y70064D01*
X2141055D01*
Y93155D01*
X1982541D02*
X2141055D01*
X1982541D02*
Y114616D01*
X2141055D01*
Y194129D01*
X1974836D02*
X2141055D01*
X1974836D02*
Y216750D01*
X2047600D01*
X2052600D02*
Y300400D01*
M02*
