G04*
G04 #@! TF.GenerationSoftware,Altium Limited,Altium Designer,23.10.1 (27)*
G04*
G04 Layer_Physical_Order=1*
G04 Layer_Color=255*
%FSLAX44Y44*%
%MOMM*%
G71*
G04*
G04 #@! TF.SameCoordinates,EE71AB0A-04B5-4847-A965-A32D4C1E190E*
G04*
G04*
G04 #@! TF.FilePolarity,Positive*
G04*
G01*
G75*
%ADD11C,0.1000*%
%ADD12C,0.2000*%
%ADD15R,0.3000X0.3000*%
%ADD16R,0.8000X1.2000*%
%ADD17R,0.7000X1.2000*%
%ADD18R,0.7600X1.2000*%
%ADD19R,0.5000X0.4500*%
G04:AMPARAMS|DCode=20|XSize=0.55mm|YSize=0.5mm|CornerRadius=0.0625mm|HoleSize=0mm|Usage=FLASHONLY|Rotation=0.000|XOffset=0mm|YOffset=0mm|HoleType=Round|Shape=RoundedRectangle|*
%AMROUNDEDRECTD20*
21,1,0.5500,0.3750,0,0,0.0*
21,1,0.4250,0.5000,0,0,0.0*
1,1,0.1250,0.2125,-0.1875*
1,1,0.1250,-0.2125,-0.1875*
1,1,0.1250,-0.2125,0.1875*
1,1,0.1250,0.2125,0.1875*
%
%ADD20ROUNDEDRECTD20*%
%ADD21R,1.7000X1.0000*%
%ADD22R,1.0000X2.7000*%
%ADD23R,0.3000X0.3000*%
%ADD24R,2.4500X2.4500*%
%ADD25O,0.8500X0.2500*%
%ADD26O,0.2500X0.8500*%
G04:AMPARAMS|DCode=38|XSize=1.1mm|YSize=1.7mm|CornerRadius=0.55mm|HoleSize=0mm|Usage=FLASHONLY|Rotation=180.000|XOffset=0mm|YOffset=0mm|HoleType=Round|Shape=RoundedRectangle|*
%AMROUNDEDRECTD38*
21,1,1.1000,0.6000,0,0,180.0*
21,1,0.0000,1.7000,0,0,180.0*
1,1,1.1000,0.0000,0.3000*
1,1,1.1000,0.0000,0.3000*
1,1,1.1000,0.0000,-0.3000*
1,1,1.1000,0.0000,-0.3000*
%
%ADD38ROUNDEDRECTD38*%
%ADD45C,0.8000*%
%ADD46C,0.3000*%
%ADD47C,0.4000*%
%ADD48C,0.8000*%
%ADD49C,0.6000*%
%ADD50C,0.4000*%
%ADD51C,0.5000*%
D11*
X2244530Y51760D02*
Y53657D01*
X2243837Y54350D02*
X2244530Y53657D01*
X2132570Y36040D02*
X2132752D01*
X2134743Y38031D01*
X2281300Y58178D02*
X2281370Y58249D01*
X2281300Y52500D02*
Y58178D01*
Y58500D02*
X2286300Y63500D01*
X2084300Y321900D02*
X2085000Y322600D01*
X2084300Y309200D02*
Y321900D01*
X2052550Y322550D02*
X2056000Y319100D01*
X2104000D02*
X2107150Y322250D01*
X2104000Y312500D02*
Y319100D01*
X2100700Y309200D02*
X2104000Y312500D01*
X2090300Y309200D02*
X2100700D01*
X2068500Y308600D02*
X2075000Y315100D01*
Y322600D01*
X2065800Y308600D02*
X2068500D01*
X2056000Y312400D02*
X2059800Y308600D01*
X2056000Y312400D02*
Y319100D01*
X2292300Y5500D02*
Y14500D01*
X2238030Y36530D02*
X2254530D01*
X2259243Y52047D02*
Y57557D01*
X2254530Y53030D02*
Y59390D01*
Y51760D02*
Y53030D01*
X2249243Y52047D02*
Y57057D01*
X2219050Y25260D02*
X2238030D01*
X2301300Y56500D02*
X2307300D01*
X2293300D02*
X2301300D01*
X2267030Y13760D02*
X2269530D01*
X2264530D02*
X2267030D01*
X2269530Y53030D02*
Y53231D01*
Y51760D02*
Y53030D01*
Y53231D02*
X2270223Y53924D01*
Y54500D01*
X2264530Y53030D02*
Y61750D01*
X2256300Y60500D02*
X2259243Y57557D01*
X2249243Y52047D02*
X2249530Y51760D01*
X2259243Y52047D02*
X2259530Y51760D01*
X2256300Y60500D02*
Y62700D01*
X2250680Y63240D02*
X2254530Y59390D01*
X2246870Y59430D02*
X2249243Y57057D01*
X2104630Y56890D02*
X2110980Y63240D01*
X2118600Y53080D02*
X2124950Y59430D01*
X2246870D01*
X2110980Y63240D02*
X2250680D01*
X2266300Y13030D02*
X2267030Y13760D01*
X2284423Y53623D02*
X2286300Y55500D01*
X2278530Y47223D02*
Y49730D01*
X2281300Y52500D01*
X2284423Y42116D02*
Y53623D01*
X2128710Y49220D02*
X2154410D01*
X2125585Y46095D02*
X2128710Y49220D01*
X2283837Y41530D02*
X2284423Y42116D01*
X2276030Y41530D02*
X2283837D01*
X2276030Y26530D02*
Y30260D01*
X2259530Y7804D02*
X2262300Y5034D01*
X2244530Y4730D02*
Y15030D01*
X2259530Y7804D02*
Y13760D01*
X2259659Y13630D01*
X2259530Y13760D02*
Y15030D01*
X2118600Y36040D02*
Y53080D01*
X2104630Y36040D02*
Y56890D01*
X2125585Y26940D02*
X2132570D01*
X2118600D02*
X2125585D01*
X2104630D02*
X2118600D01*
X2125585D02*
Y46095D01*
X2238030Y5230D02*
Y21530D01*
X2217410Y23620D02*
X2219050Y25260D01*
X2217410Y11220D02*
Y23620D01*
X2279300Y21500D02*
X2286300Y14500D01*
Y6500D02*
Y14500D01*
X2277676Y21500D02*
X2279300D01*
X2266300Y5500D02*
Y13030D01*
X2292300Y14500D02*
X2292300Y14500D01*
Y9500D02*
Y14500D01*
X2244300Y4500D02*
X2244530Y4730D01*
X2237300Y4500D02*
X2238030Y5230D01*
X2250300Y4500D02*
X2254800D01*
X2265300D02*
X2266300Y5500D01*
X2262886Y1500D02*
X2285300D01*
X2286300Y2500D02*
Y5500D01*
X2262300Y2086D02*
X2262886Y1500D01*
X2262300Y2086D02*
Y5034D01*
X2285300Y1500D02*
X2286300Y2500D01*
X2271300Y4500D02*
X2272300Y5500D01*
X2276300D01*
X2090660Y26940D02*
X2104630D01*
X2090660Y36040D02*
Y60700D01*
X2291300Y64500D02*
X2292300Y63500D01*
X2096540Y66580D02*
X2252420D01*
X2256300Y62700D01*
X2090660Y60700D02*
X2096540Y66580D01*
X2291300Y64500D02*
X2291300D01*
Y64500D02*
Y64500D01*
X2269050D02*
X2270050Y63500D01*
X2277364D02*
X2280014Y66150D01*
X2289650D02*
X2291300Y64500D01*
X2280014Y66150D02*
X2289650D01*
X2292300Y55500D02*
X2293300Y56500D01*
Y62500D02*
X2301300D01*
X2292300Y63500D02*
X2293300Y62500D01*
X2262550Y63500D02*
X2262780D01*
X2276300D02*
X2277364D01*
X2270050D02*
X2276300D01*
X2262780D02*
X2264530Y61750D01*
D12*
X2134743Y38031D02*
X2223430D01*
X2230360Y44960D01*
X2235450Y54350D02*
X2243837D01*
X2230360Y49260D02*
X2235450Y54350D01*
X2230360Y44960D02*
Y49260D01*
X2154410Y49220D02*
X2217410D01*
X2154410Y11220D02*
X2217410D01*
D15*
X2090300Y309200D02*
D03*
X2084300D02*
D03*
X2059800Y308600D02*
D03*
X2065800D02*
D03*
X2286300Y5500D02*
D03*
X2292300D02*
D03*
X2286300Y14500D02*
D03*
X2292300D02*
D03*
X2265300Y4500D02*
D03*
X2271300D02*
D03*
X2244300D02*
D03*
X2250300D02*
D03*
X2237300D02*
D03*
X2231300D02*
D03*
X2286300Y55500D02*
D03*
X2292300D02*
D03*
Y63500D02*
D03*
X2286300D02*
D03*
D16*
X2052200Y322200D02*
D03*
X2107200D02*
D03*
D17*
X2084700D02*
D03*
X2074700D02*
D03*
D18*
X2094900D02*
D03*
X2064500D02*
D03*
D19*
X2269050Y64500D02*
D03*
X2261550D02*
D03*
D20*
X2090660Y26940D02*
D03*
Y36040D02*
D03*
X2118600Y26940D02*
D03*
Y36040D02*
D03*
X2104630Y26940D02*
D03*
Y36040D02*
D03*
X2132570Y26940D02*
D03*
Y36040D02*
D03*
D21*
X2154410Y11220D02*
D03*
X2217410D02*
D03*
X2154410Y49220D02*
D03*
X2217410D02*
D03*
D22*
X2291300Y34500D02*
D03*
X2313300D02*
D03*
D23*
X2301300Y62500D02*
D03*
Y56500D02*
D03*
D24*
X2257030Y34030D02*
D03*
D25*
X2276030Y46530D02*
D03*
Y41530D02*
D03*
Y36530D02*
D03*
Y31530D02*
D03*
Y26530D02*
D03*
Y21530D02*
D03*
X2238030D02*
D03*
Y26530D02*
D03*
Y31530D02*
D03*
Y36530D02*
D03*
Y41530D02*
D03*
Y46530D02*
D03*
D26*
X2269530Y15030D02*
D03*
X2264530D02*
D03*
X2259530D02*
D03*
X2254530D02*
D03*
X2249530D02*
D03*
X2244530D02*
D03*
Y53030D02*
D03*
X2249530D02*
D03*
X2254530D02*
D03*
X2259530D02*
D03*
X2264530D02*
D03*
X2269530D02*
D03*
D38*
X2036500Y322200D02*
D03*
Y360200D02*
D03*
X2122900Y322200D02*
D03*
Y360200D02*
D03*
D45*
X2314300Y18772D02*
Y44000D01*
X2280300Y29322D02*
X2286122D01*
X2319300Y12500D02*
Y13772D01*
X2314300Y44000D02*
X2318401Y48101D01*
Y54601D01*
X2314300Y18772D02*
X2319300Y13772D01*
X2318401Y54601D02*
X2319300Y55500D01*
X2286122Y29322D02*
X2291300Y34500D01*
D46*
X2230400Y10600D02*
X2231300Y9700D01*
Y4500D02*
Y9700D01*
X2276030Y46530D02*
X2276350Y46850D01*
X2277650D01*
X2094450Y322650D02*
X2094900Y322200D01*
X2094450Y322650D02*
Y333050D01*
X2094000Y333500D02*
X2094450Y333050D01*
X2093950Y333450D02*
X2094000Y333500D01*
X2064750Y333150D02*
X2065050Y333450D01*
X2093950D01*
X2064750Y322450D02*
Y333150D01*
X2064500Y322200D02*
X2064750Y322450D01*
X2036500Y322200D02*
X2052200D01*
X2107200D02*
X2122900D01*
Y360200D01*
X2036500D02*
X2122900D01*
X2036500Y322200D02*
Y360200D01*
X2276030Y36530D02*
Y41530D01*
D47*
X2270223Y54500D02*
X2274300D01*
D48*
X2185800Y44260D02*
D03*
X2185700Y24200D02*
D03*
X2094000Y333500D02*
D03*
X2319300Y55500D02*
D03*
Y12500D02*
D03*
D49*
X2281370Y58249D02*
D03*
X2217410Y49220D02*
D03*
X2154410D02*
D03*
X2226100Y33300D02*
D03*
X2276300Y63500D02*
D03*
X2307300Y56500D02*
D03*
X2274300Y54500D02*
D03*
D50*
X2230400Y10600D02*
D03*
X2292300Y9500D02*
D03*
X2276300Y5500D02*
D03*
X2254800Y4500D02*
D03*
D51*
X2251530Y28530D02*
D03*
Y39530D02*
D03*
X2262530Y28530D02*
D03*
Y39530D02*
D03*
M02*
