G04*
G04 #@! TF.GenerationSoftware,Altium Limited,Altium Designer,23.10.1 (27)*
G04*
G04 Layer_Color=2752767*
%FSLAX44Y44*%
%MOMM*%
G71*
G04*
G04 #@! TF.SameCoordinates,EE71AB0A-04B5-4847-A965-A32D4C1E190E*
G04*
G04*
G04 #@! TF.FilePolarity,Positive*
G04*
G01*
G75*
%ADD60C,0.1270*%
D60*
X2036500Y317120D02*
X2039040Y319660D01*
X2041580D01*
X2039040Y322200D01*
X2041580Y324740D01*
X2039040D01*
X2036500Y327280D01*
X2033960Y324740D01*
X2031420D01*
X2033960Y322200D01*
X2031420Y319660D01*
X2033960D01*
X2036500Y317120D01*
Y355120D02*
X2039040Y357660D01*
X2041580D01*
X2039040Y360200D01*
X2041580Y362740D01*
X2039040D01*
X2036500Y365280D01*
X2033960Y362740D01*
X2031420D01*
X2033960Y360200D01*
X2031420Y357660D01*
X2033960D01*
X2036500Y355120D01*
X2122900Y317120D02*
X2125440Y319660D01*
X2127980D01*
X2125440Y322200D01*
X2127980Y324740D01*
X2125440D01*
X2122900Y327280D01*
X2120360Y324740D01*
X2117820D01*
X2120360Y322200D01*
X2117820Y319660D01*
X2120360D01*
X2122900Y317120D01*
Y355120D02*
X2125440Y357660D01*
X2127980D01*
X2125440Y360200D01*
X2127980Y362740D01*
X2125440D01*
X2122900Y365280D01*
X2120360Y362740D01*
X2117820D01*
X2120360Y360200D01*
X2117820Y357660D01*
X2120360D01*
X2122900Y355120D01*
X1981420Y200320D02*
X1983960Y205400D01*
X1981420Y210480D01*
X1986500Y207940D01*
X1991580Y210480D01*
X1989040Y205400D01*
X1991580Y200320D01*
X1986500Y202860D01*
X1981420Y200320D01*
X1990520Y98620D02*
X1993060Y103700D01*
X1990520Y108780D01*
X1995600Y106240D01*
X2000680Y108780D01*
X1998140Y103700D01*
X2000680Y98620D01*
X1995600Y101160D01*
X1990520Y98620D01*
X2180720Y39180D02*
X2183260Y44260D01*
X2180720Y49340D01*
X2185800Y46800D01*
X2190880Y49340D01*
X2188340Y44260D01*
X2190880Y39180D01*
X2185800Y41720D01*
X2180720Y39180D01*
X2276290Y53169D02*
Y63329D01*
X2286450D01*
Y53169D01*
X2276290D01*
X2225320Y5520D02*
Y15680D01*
X2235480D01*
Y5520D01*
X2225320D01*
X2180620Y19120D02*
X2183160Y24200D01*
X2180620Y29280D01*
X2185700Y26740D01*
X2190780Y29280D01*
X2188240Y24200D01*
X2190780Y19120D01*
X2185700Y21660D01*
X2180620Y19120D01*
X2212330Y44140D02*
Y54300D01*
X2222490D01*
Y44140D01*
X2212330D01*
X2149330D02*
Y54300D01*
X2159490D01*
Y44140D01*
X2149330D01*
X2221020Y28220D02*
X2223560Y33300D01*
X2221020Y38380D01*
X2226100Y35840D01*
X2231180Y38380D01*
X2228640Y33300D01*
X2231180Y28220D01*
X2226100Y30760D01*
X2221020Y28220D01*
X2088920Y328420D02*
X2091460Y333500D01*
X2088920Y338580D01*
X2094000Y336040D01*
X2099080Y338580D01*
X2096540Y333500D01*
X2099080Y328420D01*
X2094000Y330960D01*
X2088920Y328420D01*
X2271220Y58420D02*
Y68580D01*
X2281380D01*
Y58420D01*
X2271220D01*
X2314220Y50420D02*
X2316760Y55500D01*
X2314220Y60580D01*
X2319300Y58040D01*
X2324380Y60580D01*
X2321840Y55500D01*
X2324380Y50420D01*
X2319300Y52960D01*
X2314220Y50420D01*
X2302220Y51420D02*
Y61580D01*
X2312380D01*
Y51420D01*
X2302220D01*
X2269220Y49420D02*
Y59580D01*
X2279380D01*
Y49420D01*
X2269220D01*
X2319300Y7420D02*
X2314220Y17580D01*
X2324380D01*
X2319300Y7420D01*
X2287220Y4420D02*
Y14580D01*
X2297380D01*
Y4420D01*
X2287220D01*
X2271220Y420D02*
Y10580D01*
X2281380D01*
Y420D01*
X2271220D01*
X2249720Y-580D02*
Y9580D01*
X2259880D01*
Y-580D01*
X2249720D01*
X2246450Y23450D02*
Y33610D01*
X2256610D01*
Y23450D01*
X2246450D01*
Y34450D02*
Y44610D01*
X2256610D01*
Y34450D01*
X2246450D01*
X2257450Y23450D02*
Y33610D01*
X2267610D01*
Y23450D01*
X2257450D01*
Y34450D02*
Y44610D01*
X2267610D01*
Y34450D01*
X2257450D01*
M02*
