G04*
G04 #@! TF.GenerationSoftware,Altium Limited,Altium Designer,23.10.1 (27)*
G04*
G04 Layer_Color=8388736*
%FSLAX44Y44*%
%MOMM*%
G71*
G04*
G04 #@! TF.SameCoordinates,EE71AB0A-04B5-4847-A965-A32D4C1E190E*
G04*
G04*
G04 #@! TF.FilePolarity,Negative*
G04*
G01*
G75*
%ADD16R,0.8000X1.2000*%
%ADD17R,0.7000X1.2000*%
%ADD18R,0.7600X1.2000*%
%ADD29R,0.5032X0.5032*%
%ADD30R,0.7032X0.6532*%
G04:AMPARAMS|DCode=31|XSize=0.7532mm|YSize=0.7032mm|CornerRadius=0.1641mm|HoleSize=0mm|Usage=FLASHONLY|Rotation=0.000|XOffset=0mm|YOffset=0mm|HoleType=Round|Shape=RoundedRectangle|*
%AMROUNDEDRECTD31*
21,1,0.7532,0.3750,0,0,0.0*
21,1,0.4250,0.7032,0,0,0.0*
1,1,0.3282,0.2125,-0.1875*
1,1,0.3282,-0.2125,-0.1875*
1,1,0.3282,-0.2125,0.1875*
1,1,0.3282,0.2125,0.1875*
%
%ADD31ROUNDEDRECTD31*%
%ADD32R,1.9032X1.2032*%
%ADD33R,1.2032X2.9032*%
%ADD34R,0.5032X0.5032*%
%ADD35R,2.6532X2.6532*%
%ADD36O,1.0532X0.4532*%
%ADD37O,0.4532X1.0532*%
G04:AMPARAMS|DCode=38|XSize=1.1mm|YSize=1.7mm|CornerRadius=0.55mm|HoleSize=0mm|Usage=FLASHONLY|Rotation=180.000|XOffset=0mm|YOffset=0mm|HoleType=Round|Shape=RoundedRectangle|*
%AMROUNDEDRECTD38*
21,1,1.1000,0.6000,0,0,180.0*
21,1,0.0000,1.7000,0,0,180.0*
1,1,1.1000,0.0000,0.3000*
1,1,1.1000,0.0000,0.3000*
1,1,1.1000,0.0000,-0.3000*
1,1,1.1000,0.0000,-0.3000*
%
%ADD38ROUNDEDRECTD38*%
%ADD39C,1.0032*%
%ADD40C,0.8032*%
%ADD41C,0.6032*%
%ADD42C,0.7032*%
D16*
X2052200Y322200D02*
D03*
X2107200D02*
D03*
D17*
X2084700D02*
D03*
X2074700D02*
D03*
D18*
X2094900D02*
D03*
X2064500D02*
D03*
D29*
X2090300Y309200D02*
D03*
X2084300D02*
D03*
X2059800Y308600D02*
D03*
X2065800D02*
D03*
X2286300Y5500D02*
D03*
X2292300D02*
D03*
X2286300Y14500D02*
D03*
X2292300D02*
D03*
X2265300Y4500D02*
D03*
X2271300D02*
D03*
X2244300D02*
D03*
X2250300D02*
D03*
X2237300D02*
D03*
X2231300D02*
D03*
X2286300Y55500D02*
D03*
X2292300D02*
D03*
Y63500D02*
D03*
X2286300D02*
D03*
D30*
X2269050Y64500D02*
D03*
X2261550D02*
D03*
D31*
X2090660Y26940D02*
D03*
Y36040D02*
D03*
X2118600Y26940D02*
D03*
Y36040D02*
D03*
X2104630Y26940D02*
D03*
Y36040D02*
D03*
X2132570Y26940D02*
D03*
Y36040D02*
D03*
D32*
X2154410Y11220D02*
D03*
X2217410D02*
D03*
X2154410Y49220D02*
D03*
X2217410D02*
D03*
D33*
X2291300Y34500D02*
D03*
X2313300D02*
D03*
D34*
X2301300Y62500D02*
D03*
Y56500D02*
D03*
D35*
X2257030Y34030D02*
D03*
D36*
X2276030Y46530D02*
D03*
Y41530D02*
D03*
Y36530D02*
D03*
Y31530D02*
D03*
Y26530D02*
D03*
Y21530D02*
D03*
X2238030D02*
D03*
Y26530D02*
D03*
Y31530D02*
D03*
Y36530D02*
D03*
Y41530D02*
D03*
Y46530D02*
D03*
D37*
X2269530Y15030D02*
D03*
X2264530D02*
D03*
X2259530D02*
D03*
X2254530D02*
D03*
X2249530D02*
D03*
X2244530D02*
D03*
Y53030D02*
D03*
X2249530D02*
D03*
X2254530D02*
D03*
X2259530D02*
D03*
X2264530D02*
D03*
X2269530D02*
D03*
D38*
X2036500Y322200D02*
D03*
Y360200D02*
D03*
X2122900Y322200D02*
D03*
Y360200D02*
D03*
D39*
X2185800Y44260D02*
D03*
X2185700Y24200D02*
D03*
X2094000Y333500D02*
D03*
X2319300Y55500D02*
D03*
Y12500D02*
D03*
D40*
X2281370Y58249D02*
D03*
X2217410Y49220D02*
D03*
X2154410D02*
D03*
X2226100Y33300D02*
D03*
X2276300Y63500D02*
D03*
X2307300Y56500D02*
D03*
X2274300Y54500D02*
D03*
D41*
X2230400Y10600D02*
D03*
X2292300Y9500D02*
D03*
X2276300Y5500D02*
D03*
X2254800Y4500D02*
D03*
D42*
X2251530Y28530D02*
D03*
Y39530D02*
D03*
X2262530Y28530D02*
D03*
Y39530D02*
D03*
M02*
