G04*
G04 #@! TF.GenerationSoftware,Altium Limited,Altium Designer,23.10.1 (27)*
G04*
G04 Layer_Color=16711935*
%FSLAX44Y44*%
%MOMM*%
G71*
G04*
G04 #@! TF.SameCoordinates,EE71AB0A-04B5-4847-A965-A32D4C1E190E*
G04*
G04*
G04 #@! TF.FilePolarity,Positive*
G04*
G01*
G75*
%ADD58C,0.0127*%
D58*
X1538707Y325234D02*
G03*
X1538707Y325234I-3550J0D01*
G01*
X1413827Y205288D02*
G03*
X1413827Y205288I-10000J0D01*
G01*
X1422915Y103959D02*
G03*
X1422915Y103959I-10000J0D01*
G01*
X1495047Y63D02*
Y70064D01*
X1558455D01*
X1684965D02*
X1745231D01*
Y63D02*
Y70064D01*
X1447657Y300400D02*
Y355384D01*
Y300400D02*
X1543628D01*
X1452106Y307985D02*
X1452657Y307934D01*
X1457657D01*
X1458741Y308137D01*
X1459678Y308717D01*
X1460343Y309597D01*
X1460644Y310658D01*
X1460543Y311755D02*
X1460644Y310658D01*
X1460051Y312742D02*
X1460543Y311755D01*
X1459236Y313485D02*
X1460051Y312742D01*
X1458208Y313883D02*
X1459236Y313485D01*
X1457657Y313934D02*
X1458208Y313883D01*
X1452657Y313934D02*
X1457657D01*
X1451573Y313732D02*
X1452657Y313934D01*
X1450636Y313151D02*
X1451573Y313732D01*
X1449972Y312272D02*
X1450636Y313151D01*
X1449670Y311211D02*
X1449972Y312272D01*
X1449670Y311211D02*
X1449772Y310113D01*
X1450263Y309126D01*
X1451078Y308384D01*
X1452106Y307985D01*
X1450281Y324137D02*
X1450785Y323148D01*
X1451571Y322362D01*
X1452560Y321858D01*
X1453657Y321684D01*
X1456657D01*
X1457754Y321858D01*
X1458744Y322362D01*
X1459529Y323148D01*
X1460034Y324137D01*
X1460207Y325234D01*
X1460034Y326331D02*
X1460207Y325234D01*
X1459529Y327321D02*
X1460034Y326331D01*
X1458744Y328106D02*
X1459529Y327321D01*
X1457754Y328611D02*
X1458744Y328106D01*
X1456657Y328784D02*
X1457754Y328611D01*
X1453657Y328784D02*
X1456657D01*
X1452560Y328611D02*
X1453657Y328784D01*
X1451571Y328106D02*
X1452560Y328611D01*
X1450785Y327321D02*
X1451571Y328106D01*
X1450281Y326331D02*
X1450785Y327321D01*
X1450107Y325234D02*
X1450281Y326331D01*
X1450107Y325234D02*
X1450281Y324137D01*
X1452106Y336586D02*
X1452657Y336534D01*
X1457657D01*
X1458741Y336737D01*
X1459678Y337317D01*
X1460343Y338197D01*
X1460644Y339258D01*
X1460543Y340355D02*
X1460644Y339258D01*
X1460051Y341342D02*
X1460543Y340355D01*
X1459236Y342085D02*
X1460051Y341342D01*
X1458208Y342483D02*
X1459236Y342085D01*
X1457657Y342534D02*
X1458208Y342483D01*
X1452657Y342534D02*
X1457657D01*
X1451573Y342332D02*
X1452657Y342534D01*
X1450636Y341751D02*
X1451573Y342332D01*
X1449972Y340872D02*
X1450636Y341751D01*
X1449670Y339811D02*
X1449972Y340872D01*
X1449670Y339811D02*
X1449772Y338713D01*
X1450263Y337727D01*
X1451078Y336984D01*
X1452106Y336586D01*
X1532106Y307985D02*
X1532657Y307934D01*
X1537657D01*
X1538741Y308137D01*
X1539678Y308717D01*
X1540343Y309597D01*
X1540644Y310658D01*
X1540543Y311755D02*
X1540644Y310658D01*
X1540051Y312742D02*
X1540543Y311755D01*
X1539236Y313485D02*
X1540051Y312742D01*
X1538208Y313883D02*
X1539236Y313485D01*
X1537657Y313934D02*
X1538208Y313883D01*
X1532657Y313934D02*
X1537657D01*
X1531573Y313732D02*
X1532657Y313934D01*
X1530636Y313151D02*
X1531573Y313732D01*
X1529972Y312272D02*
X1530636Y313151D01*
X1529670Y311211D02*
X1529972Y312272D01*
X1529670Y311211D02*
X1529772Y310113D01*
X1530263Y309126D01*
X1531078Y308384D01*
X1532106Y307985D01*
Y336586D02*
X1532657Y336534D01*
X1537657D01*
X1538741Y336737D01*
X1539678Y337317D01*
X1540343Y338197D01*
X1540644Y339258D01*
X1540543Y340355D02*
X1540644Y339258D01*
X1540051Y341342D02*
X1540543Y340355D01*
X1539236Y342085D02*
X1540051Y341342D01*
X1538208Y342483D02*
X1539236Y342085D01*
X1537657Y342534D02*
X1538208Y342483D01*
X1532657Y342534D02*
X1537657D01*
X1531573Y342332D02*
X1532657Y342534D01*
X1530636Y341751D02*
X1531573Y342332D01*
X1529972Y340872D02*
X1530636Y341751D01*
X1529670Y339811D02*
X1529972Y340872D01*
X1529670Y339811D02*
X1529772Y338713D01*
X1530263Y337727D01*
X1531078Y336984D01*
X1532106Y336586D01*
X1470000Y216800D02*
Y300400D01*
X1520000Y224250D02*
Y300384D01*
X1523750Y224250D02*
X1525000D01*
X1468750Y216750D02*
X1470000D01*
X1465000D02*
X1466250D01*
X1447657Y355384D02*
X1543628D01*
Y300400D02*
Y355384D01*
X1520000Y224250D02*
X1523750D01*
X1525000D02*
X1558455D01*
Y241373D01*
X1684965D01*
Y70064D02*
Y241373D01*
X1495047Y63D02*
X1745231D01*
X1558455Y70064D02*
Y93155D01*
X1399941D02*
X1558455D01*
X1399941D02*
Y114600D01*
X1558455D01*
Y194129D01*
X1392236D02*
X1558455D01*
X1392236D02*
Y216750D01*
X1465000D01*
X1466250D02*
X1468750D01*
M02*
