G04*
G04 #@! TF.GenerationSoftware,Altium Limited,Altium Designer,23.10.1 (27)*
G04*
G04 Layer_Color=128*
%FSLAX44Y44*%
%MOMM*%
G71*
G04*
G04 #@! TF.SameCoordinates,EE71AB0A-04B5-4847-A965-A32D4C1E190E*
G04*
G04*
G04 #@! TF.FilePolarity,Positive*
G04*
G01*
G75*
%ADD60C,0.1270*%
D60*
X2030500Y322200D02*
X2042500D01*
X2036500Y316200D02*
Y328200D01*
X2030500Y360200D02*
X2042500D01*
X2036500Y354200D02*
Y366200D01*
X2116900Y322200D02*
X2128900D01*
X2122900Y316200D02*
Y328200D01*
X2116900Y360200D02*
X2128900D01*
X2122900Y354200D02*
Y366200D01*
X1984500Y205400D02*
X1988500D01*
X1986500Y203400D02*
Y207400D01*
X1993600Y103700D02*
X1997600D01*
X1995600Y101700D02*
Y105700D01*
X2183800Y44260D02*
X2187800D01*
X2185800Y42260D02*
Y46260D01*
X2280370Y58249D02*
X2282370D01*
X2281370Y57249D02*
Y59249D01*
X2229400Y10600D02*
X2231400D01*
X2230400Y9600D02*
Y11600D01*
X2183700Y24200D02*
X2187700D01*
X2185700Y22200D02*
Y26200D01*
X2216410Y49220D02*
X2218410D01*
X2217410Y48220D02*
Y50220D01*
X2153410Y49220D02*
X2155410D01*
X2154410Y48220D02*
Y50220D01*
X2224100Y33300D02*
X2228100D01*
X2226100Y31300D02*
Y35300D01*
X2092000Y333500D02*
X2096000D01*
X2094000Y331500D02*
Y335500D01*
X2275300Y63500D02*
X2277300D01*
X2276300Y62500D02*
Y64500D01*
X2317300Y55500D02*
X2321300D01*
X2319300Y53500D02*
Y57500D01*
X2306300Y56500D02*
X2308300D01*
X2307300Y55500D02*
Y57500D01*
X2273300Y54500D02*
X2275300D01*
X2274300Y53500D02*
Y55500D01*
X2317245Y12500D02*
X2321355D01*
X2319300Y10445D02*
Y14555D01*
X2291300Y9500D02*
X2293300D01*
X2292300Y8500D02*
Y10500D01*
X2275300Y5500D02*
X2277300D01*
X2276300Y4500D02*
Y6500D01*
X2253800Y4500D02*
X2255800D01*
X2254800Y3500D02*
Y5500D01*
X2250530Y28530D02*
X2252530D01*
X2251530Y27530D02*
Y29530D01*
X2250530Y39530D02*
X2252530D01*
X2251530Y38530D02*
Y40530D01*
X2261530Y28530D02*
X2263530D01*
X2262530Y27530D02*
Y29530D01*
X2261530Y39530D02*
X2263530D01*
X2262530Y38530D02*
Y40530D01*
M02*
