G04*
G04 #@! TF.GenerationSoftware,Altium Limited,Altium Designer,23.10.1 (27)*
G04*
G04 Layer_Color=65535*
%FSLAX44Y44*%
%MOMM*%
G71*
G04*
G04 #@! TF.SameCoordinates,EE71AB0A-04B5-4847-A965-A32D4C1E190E*
G04*
G04*
G04 #@! TF.FilePolarity,Positive*
G04*
G01*
G75*
%ADD10C,0.2500*%
%ADD11C,0.1000*%
%ADD12C,0.2000*%
%ADD13C,0.1500*%
%ADD14C,0.2540*%
D10*
X2108450Y309700D02*
G03*
X2108450Y309700I-1250J0D01*
G01*
X2155660Y720D02*
G03*
X2155660Y720I-1250J0D01*
G01*
X2292550Y53500D02*
G03*
X2292550Y53500I-1250J0D01*
G01*
X2278530Y62280D02*
G03*
X2278530Y62280I-1250J0D01*
G01*
D11*
X2081300Y305700D02*
Y309200D01*
Y305700D02*
X2093300D01*
X2081300Y309200D02*
Y312700D01*
X2093300D01*
Y305700D02*
Y312700D01*
X2068800Y308600D02*
Y312100D01*
X2056800D02*
X2068800D01*
Y305100D02*
Y308600D01*
X2056800Y305100D02*
X2068800D01*
X2056800D02*
Y312100D01*
X2295300Y5500D02*
Y9000D01*
X2283300D02*
X2295300D01*
Y2000D02*
Y5500D01*
X2283300Y2000D02*
X2295300D01*
X2283300D02*
Y9000D01*
X2295300Y14500D02*
Y18000D01*
X2283300D02*
X2295300D01*
Y11000D02*
Y14500D01*
X2283300Y11000D02*
X2295300D01*
X2283300D02*
Y18000D01*
X2274300Y4500D02*
Y8000D01*
X2262300D02*
X2274300D01*
Y1000D02*
Y4500D01*
X2262300Y1000D02*
X2274300D01*
X2262300D02*
Y8000D01*
X2253300Y4500D02*
Y8000D01*
X2241300D02*
X2253300D01*
Y1000D02*
Y4500D01*
X2241300Y1000D02*
X2253300D01*
X2241300D02*
Y8000D01*
X2228300Y1000D02*
Y4500D01*
Y1000D02*
X2240300D01*
X2228300Y4500D02*
Y8000D01*
X2240300D01*
Y1000D02*
Y8000D01*
X2295300Y55500D02*
Y59000D01*
X2283300D02*
X2295300D01*
Y52000D02*
Y55500D01*
X2283300Y52000D02*
X2295300D01*
X2283300D02*
Y59000D01*
X2301300Y53500D02*
X2304800D01*
Y65500D01*
X2297800Y53500D02*
X2301300D01*
X2297800D02*
Y65500D01*
X2304800D01*
X2283300Y60000D02*
Y63500D01*
Y60000D02*
X2295300D01*
X2283300Y63500D02*
Y67000D01*
X2295300D01*
Y60000D02*
Y67000D01*
D12*
X2033750Y334450D02*
Y347950D01*
X2125650Y334450D02*
Y347950D01*
X2210910Y20220D02*
Y40220D01*
X2175910Y5220D02*
X2195910D01*
X2175910Y55220D02*
X2195910D01*
X2160910Y20220D02*
Y40220D01*
X2166910Y46220D02*
X2175910Y55220D01*
X2195910D02*
X2204910Y46220D01*
X2195910Y5220D02*
X2204910Y14220D01*
X2166910D02*
X2175910Y5220D01*
X2300300Y49500D02*
X2304300D01*
X2300300Y19500D02*
X2304300D01*
Y49500D01*
X2300300Y19500D02*
Y49500D01*
X2235280Y51780D02*
Y55780D01*
X2239280D01*
X2235280Y12280D02*
Y16280D01*
Y12280D02*
X2239280D01*
X2274780D02*
X2278780D01*
Y16280D01*
Y51780D02*
Y55780D01*
X2274780D02*
X2278780D01*
D13*
X2088660Y40490D02*
X2092660D01*
X2116600D02*
X2120600D01*
X2102630D02*
X2106630D01*
X2130570D02*
X2134570D01*
D14*
X2041649Y411729D02*
X2036570D01*
X2039109D01*
Y399033D01*
X2036570Y396494D01*
X2034031D01*
X2031492Y399033D01*
X2046727Y396494D02*
X2051805D01*
X2049266D01*
Y411729D01*
X2046727Y409190D01*
M02*
