G04*
G04 #@! TF.GenerationSoftware,Altium Limited,Altium Designer,23.10.1 (27)*
G04*
G04 Layer_Color=0*
%FSLAX44Y44*%
%MOMM*%
G71*
G04*
G04 #@! TF.SameCoordinates,EE71AB0A-04B5-4847-A965-A32D4C1E190E*
G04*
G04*
G04 #@! TF.FilePolarity,Positive*
G04*
G01*
G75*
%ADD61C,0.0254*%
D61*
X2077647Y64D02*
X2327830Y63D01*
X2327831Y70063D01*
X2281037Y70064D01*
X2273969Y73969D01*
X2273600Y74337D01*
X2267565Y83535D01*
X2267565Y241373D01*
X2141055Y241373D01*
X2141055Y237048D01*
X2139171Y233684D01*
X2135807Y231800D01*
X2114442Y231800D01*
X2107567Y233684D01*
X2104920Y235791D01*
X2102600Y241448D01*
Y290323D01*
X2104150Y295706D01*
X2110603Y300400D01*
X2130700Y300400D01*
X2130700Y369300D01*
X2027400Y369300D01*
X2027400Y300400D01*
X2042800Y300400D01*
X2047425Y298840D01*
X2049241Y297010D01*
X2050535Y295706D01*
X2052600Y290628D01*
X2052600Y229600D01*
X2047425Y221925D01*
X2036126Y216750D01*
X1974836Y216750D01*
X1974836Y194130D01*
X1974906Y194200D01*
X2021800Y194200D01*
X2021871Y194129D01*
X2126900Y194129D01*
X2126900Y193700D01*
X2134170Y192063D01*
X2136579Y189654D01*
X2139171Y187063D01*
X2141055Y179400D01*
Y128900D01*
X2136579Y119092D01*
X2126900Y114800D01*
X2126900Y114616D01*
X2009516Y114616D01*
X2009500Y114600D01*
X1982558Y114600D01*
X1982542Y114616D01*
X1982541Y93155D01*
X2009555Y93155D01*
X2009600Y93200D01*
X2129200Y93200D01*
X2129364Y93300D01*
X2134170Y89994D01*
X2136579Y85821D01*
X2136579Y79420D01*
X2129400Y70100D01*
X2129436Y70064D01*
X2077647Y70064D01*
X2077647Y64D01*
M02*
