G04*
G04 #@! TF.GenerationSoftware,Altium Limited,Altium Designer,23.10.1 (27)*
G04*
G04 Layer_Physical_Order=3*
G04 Layer_Color=16440176*
%FSLAX44Y44*%
%MOMM*%
G71*
G04*
G04 #@! TF.SameCoordinates,EE71AB0A-04B5-4847-A965-A32D4C1E190E*
G04*
G04*
G04 #@! TF.FilePolarity,Positive*
G04*
G01*
G75*
G04:AMPARAMS|DCode=38|XSize=1.1mm|YSize=1.7mm|CornerRadius=0.55mm|HoleSize=0mm|Usage=FLASHONLY|Rotation=180.000|XOffset=0mm|YOffset=0mm|HoleType=Round|Shape=RoundedRectangle|*
%AMROUNDEDRECTD38*
21,1,1.1000,0.6000,0,0,180.0*
21,1,0.0000,1.7000,0,0,180.0*
1,1,1.1000,0.0000,0.3000*
1,1,1.1000,0.0000,0.3000*
1,1,1.1000,0.0000,-0.3000*
1,1,1.1000,0.0000,-0.3000*
%
%ADD38ROUNDEDRECTD38*%
%ADD48C,0.8000*%
%ADD49C,0.6000*%
%ADD50C,0.4000*%
%ADD51C,0.5000*%
G36*
X2130700Y300400D02*
X2107567Y295289D01*
X2105558Y234235D01*
X2132719Y237048D01*
X2135807Y241373D01*
X2267565D01*
X2278050Y78050D01*
X2327831Y70064D01*
Y63D01*
X2077647D01*
Y70064D01*
X2125564Y73969D01*
X2126900Y93155D01*
X1982541D01*
Y114584D01*
X1982574Y114616D01*
X2132719Y120619D01*
X2130699Y192845D01*
X2126966Y194063D01*
X1974906Y194200D01*
Y216679D01*
X1974935Y216757D01*
X2047425Y221925D01*
X2049241Y298227D01*
X2027400Y300400D01*
Y369300D01*
X2033444D01*
X2033829Y368030D01*
X2032535Y367165D01*
X2031319Y365346D01*
X2030892Y363200D01*
Y361470D01*
X2036500D01*
X2042108D01*
Y363200D01*
X2041681Y365346D01*
X2040465Y367165D01*
X2039171Y368030D01*
X2039556Y369300D01*
X2119844D01*
X2120229Y368030D01*
X2118935Y367165D01*
X2117719Y365346D01*
X2117292Y363200D01*
Y361470D01*
X2122900D01*
X2128508D01*
Y363200D01*
X2128081Y365346D01*
X2126865Y367165D01*
X2125571Y368030D01*
X2125956Y369300D01*
X2130700D01*
Y300400D01*
D02*
G37*
%LPC*%
G36*
X2121630Y358930D02*
X2117292D01*
Y357200D01*
X2117719Y355054D01*
X2118935Y353235D01*
X2120754Y352019D01*
X2121630Y351845D01*
Y358930D01*
D02*
G37*
G36*
X2042108D02*
X2037770D01*
Y351845D01*
X2038646Y352019D01*
X2040465Y353235D01*
X2041681Y355054D01*
X2042108Y357200D01*
Y358930D01*
D02*
G37*
G36*
X2035230D02*
X2030892D01*
Y357200D01*
X2031319Y355054D01*
X2032535Y353235D01*
X2034354Y352019D01*
X2035230Y351845D01*
Y358930D01*
D02*
G37*
G36*
X2128508D02*
X2124170D01*
Y351845D01*
X2125046Y352019D01*
X2126865Y353235D01*
X2128081Y355054D01*
X2128508Y357200D01*
Y358930D01*
D02*
G37*
G36*
X2094925Y338150D02*
X2093075D01*
X2091366Y337442D01*
X2090058Y336134D01*
X2089350Y334425D01*
Y332575D01*
X2090058Y330866D01*
X2091366Y329558D01*
X2093075Y328850D01*
X2094925D01*
X2096634Y329558D01*
X2097942Y330866D01*
X2098650Y332575D01*
Y334425D01*
X2097942Y336134D01*
X2096634Y337442D01*
X2094925Y338150D01*
D02*
G37*
G36*
X2037770Y330555D02*
Y323470D01*
X2042108D01*
Y325200D01*
X2041681Y327346D01*
X2040465Y329165D01*
X2038646Y330381D01*
X2037770Y330555D01*
D02*
G37*
G36*
X2124170Y330555D02*
Y323470D01*
X2128508D01*
Y325200D01*
X2128081Y327346D01*
X2126865Y329165D01*
X2125046Y330381D01*
X2124170Y330555D01*
D02*
G37*
G36*
X2121630Y330555D02*
X2120754Y330381D01*
X2118935Y329165D01*
X2117719Y327346D01*
X2117292Y325200D01*
Y323470D01*
X2121630D01*
Y330555D01*
D02*
G37*
G36*
X2035230Y330555D02*
X2034354Y330381D01*
X2032535Y329165D01*
X2031319Y327346D01*
X2030892Y325200D01*
Y323470D01*
X2035230D01*
Y330555D01*
D02*
G37*
G36*
X2121630Y320930D02*
X2117292D01*
Y319200D01*
X2117719Y317054D01*
X2118935Y315235D01*
X2120754Y314019D01*
X2121630Y313845D01*
Y320930D01*
D02*
G37*
G36*
X2042108D02*
X2037770D01*
Y313845D01*
X2038646Y314019D01*
X2040465Y315235D01*
X2041681Y317054D01*
X2042108Y319200D01*
Y320930D01*
D02*
G37*
G36*
X2035230D02*
X2030892D01*
Y319200D01*
X2031319Y317054D01*
X2032535Y315235D01*
X2034354Y314019D01*
X2035230Y313845D01*
Y320930D01*
D02*
G37*
G36*
X2128508D02*
X2124170D01*
Y313845D01*
X2125046Y314019D01*
X2126865Y315235D01*
X2128081Y317054D01*
X2128508Y319200D01*
Y320930D01*
D02*
G37*
G36*
X1987425Y210050D02*
X1985575D01*
X1983866Y209342D01*
X1982558Y208034D01*
X1981850Y206325D01*
Y204475D01*
X1982558Y202766D01*
X1983866Y201458D01*
X1985575Y200750D01*
X1987425D01*
X1989134Y201458D01*
X1990442Y202766D01*
X1991150Y204475D01*
Y206325D01*
X1990442Y208034D01*
X1989134Y209342D01*
X1987425Y210050D01*
D02*
G37*
G36*
X1996525Y108350D02*
X1994675D01*
X1992966Y107642D01*
X1991658Y106334D01*
X1990950Y104625D01*
Y102775D01*
X1991658Y101066D01*
X1992966Y99758D01*
X1994675Y99050D01*
X1996525D01*
X1998234Y99758D01*
X1999542Y101066D01*
X2000250Y102775D01*
Y104625D01*
X1999542Y106334D01*
X1998234Y107642D01*
X1996525Y108350D01*
D02*
G37*
G36*
X2277570Y66221D02*
Y64770D01*
X2279021D01*
X2278843Y65199D01*
X2277999Y66043D01*
X2277570Y66221D01*
D02*
G37*
G36*
X2275030D02*
X2274601Y66043D01*
X2273757Y65199D01*
X2273579Y64770D01*
X2275030D01*
Y66221D01*
D02*
G37*
G36*
Y62230D02*
X2273579D01*
X2273757Y61801D01*
X2274601Y60957D01*
X2275030Y60779D01*
Y62230D01*
D02*
G37*
G36*
X2279654D02*
X2277570D01*
Y59964D01*
X2277966Y59568D01*
X2277720Y58975D01*
Y58038D01*
X2276458Y57504D01*
X2276368Y57594D01*
X2275026Y58150D01*
X2273574D01*
X2272232Y57594D01*
X2271206Y56568D01*
X2270650Y55226D01*
Y53774D01*
X2271206Y52432D01*
X2272232Y51406D01*
X2273574Y50850D01*
X2275026D01*
X2276368Y51406D01*
X2277394Y52432D01*
X2277950Y53774D01*
Y54711D01*
X2279212Y55244D01*
X2279303Y55154D01*
X2280644Y54599D01*
X2282096D01*
X2283438Y55154D01*
X2284465Y56181D01*
X2285020Y57523D01*
Y58975D01*
X2284465Y60316D01*
X2283438Y61343D01*
X2282096Y61899D01*
X2280644D01*
X2280179Y61706D01*
X2279654Y62230D01*
D02*
G37*
G36*
X2308026Y60150D02*
X2306574D01*
X2305232Y59594D01*
X2304206Y58568D01*
X2303650Y57226D01*
Y55774D01*
X2304206Y54433D01*
X2305232Y53406D01*
X2306574Y52850D01*
X2308026D01*
X2309368Y53406D01*
X2310394Y54433D01*
X2310950Y55774D01*
Y57226D01*
X2310394Y58568D01*
X2309368Y59594D01*
X2308026Y60150D01*
D02*
G37*
G36*
X2320225D02*
X2318375D01*
X2316666Y59442D01*
X2315358Y58134D01*
X2314650Y56425D01*
Y54575D01*
X2315358Y52866D01*
X2316666Y51558D01*
X2318375Y50850D01*
X2320225D01*
X2321934Y51558D01*
X2323242Y52866D01*
X2323950Y54575D01*
Y56425D01*
X2323242Y58134D01*
X2321934Y59442D01*
X2320225Y60150D01*
D02*
G37*
G36*
X2218136Y52870D02*
X2216684D01*
X2215342Y52314D01*
X2214316Y51288D01*
X2213760Y49946D01*
Y48494D01*
X2214316Y47153D01*
X2215342Y46126D01*
X2216684Y45570D01*
X2218136D01*
X2219478Y46126D01*
X2220504Y47153D01*
X2221060Y48494D01*
Y49946D01*
X2220504Y51288D01*
X2219478Y52314D01*
X2218136Y52870D01*
D02*
G37*
G36*
X2155136D02*
X2153684D01*
X2152342Y52314D01*
X2151316Y51288D01*
X2150760Y49946D01*
Y48494D01*
X2151316Y47153D01*
X2152342Y46126D01*
X2153684Y45570D01*
X2155136D01*
X2156478Y46126D01*
X2157504Y47153D01*
X2158060Y48494D01*
Y49946D01*
X2157504Y51288D01*
X2156478Y52314D01*
X2155136Y52870D01*
D02*
G37*
G36*
X2263800Y41710D02*
Y40800D01*
X2264710D01*
X2264649Y40946D01*
X2263946Y41649D01*
X2263800Y41710D01*
D02*
G37*
G36*
X2261260D02*
X2261114Y41649D01*
X2260411Y40946D01*
X2260350Y40800D01*
X2261260D01*
Y41710D01*
D02*
G37*
G36*
X2252800D02*
Y40800D01*
X2253710D01*
X2253649Y40946D01*
X2252946Y41649D01*
X2252800Y41710D01*
D02*
G37*
G36*
X2250260D02*
X2250114Y41649D01*
X2249411Y40946D01*
X2249350Y40800D01*
X2250260D01*
Y41710D01*
D02*
G37*
G36*
X2186725Y48910D02*
X2184875D01*
X2183166Y48202D01*
X2181858Y46894D01*
X2181150Y45185D01*
Y43335D01*
X2181858Y41626D01*
X2183166Y40318D01*
X2184875Y39610D01*
X2186725D01*
X2188434Y40318D01*
X2189742Y41626D01*
X2190450Y43335D01*
Y45185D01*
X2189742Y46894D01*
X2188434Y48202D01*
X2186725Y48910D01*
D02*
G37*
G36*
X2264710Y38260D02*
X2263800D01*
Y37350D01*
X2263946Y37411D01*
X2264649Y38114D01*
X2264710Y38260D01*
D02*
G37*
G36*
X2261260D02*
X2260350D01*
X2260411Y38114D01*
X2261114Y37411D01*
X2261260Y37350D01*
Y38260D01*
D02*
G37*
G36*
X2253710D02*
X2252800D01*
Y37350D01*
X2252946Y37411D01*
X2253649Y38114D01*
X2253710Y38260D01*
D02*
G37*
G36*
X2250260D02*
X2249350D01*
X2249411Y38114D01*
X2250114Y37411D01*
X2250260Y37350D01*
Y38260D01*
D02*
G37*
G36*
X2263800Y30710D02*
Y29800D01*
X2264710D01*
X2264649Y29946D01*
X2263946Y30649D01*
X2263800Y30710D01*
D02*
G37*
G36*
X2261260D02*
X2261114Y30649D01*
X2260411Y29946D01*
X2260350Y29800D01*
X2261260D01*
Y30710D01*
D02*
G37*
G36*
X2252800D02*
Y29800D01*
X2253710D01*
X2253649Y29946D01*
X2252946Y30649D01*
X2252800Y30710D01*
D02*
G37*
G36*
X2250260D02*
X2250114Y30649D01*
X2249411Y29946D01*
X2249350Y29800D01*
X2250260D01*
Y30710D01*
D02*
G37*
G36*
X2226826Y36950D02*
X2225374D01*
X2224032Y36394D01*
X2223006Y35368D01*
X2222450Y34026D01*
Y32574D01*
X2223006Y31232D01*
X2224032Y30206D01*
X2225374Y29650D01*
X2226826D01*
X2228168Y30206D01*
X2229194Y31232D01*
X2229750Y32574D01*
Y34026D01*
X2229194Y35368D01*
X2228168Y36394D01*
X2226826Y36950D01*
D02*
G37*
G36*
X2264710Y27260D02*
X2263800D01*
Y26350D01*
X2263946Y26411D01*
X2264649Y27114D01*
X2264710Y27260D01*
D02*
G37*
G36*
X2261260D02*
X2260350D01*
X2260411Y27114D01*
X2261114Y26411D01*
X2261260Y26350D01*
Y27260D01*
D02*
G37*
G36*
X2253710D02*
X2252800D01*
Y26350D01*
X2252946Y26411D01*
X2253649Y27114D01*
X2253710Y27260D01*
D02*
G37*
G36*
X2250260D02*
X2249350D01*
X2249411Y27114D01*
X2250114Y26411D01*
X2250260Y26350D01*
Y27260D01*
D02*
G37*
G36*
X2186625Y28850D02*
X2184775D01*
X2183066Y28142D01*
X2181758Y26834D01*
X2181050Y25125D01*
Y23275D01*
X2181758Y21566D01*
X2183066Y20258D01*
X2184775Y19550D01*
X2186625D01*
X2188334Y20258D01*
X2189642Y21566D01*
X2190350Y23275D01*
Y25125D01*
X2189642Y26834D01*
X2188334Y28142D01*
X2186625Y28850D01*
D02*
G37*
G36*
X2231670Y12158D02*
Y11870D01*
X2231958D01*
X2231670Y12158D01*
D02*
G37*
G36*
X2229130D02*
X2228842Y11870D01*
X2229130D01*
Y12158D01*
D02*
G37*
G36*
X2293570Y11058D02*
Y10770D01*
X2293858D01*
X2293570Y11058D01*
D02*
G37*
G36*
X2291030D02*
X2290742Y10770D01*
X2291030D01*
Y11058D01*
D02*
G37*
G36*
X2231958Y9330D02*
X2231670D01*
Y9042D01*
X2231958Y9330D01*
D02*
G37*
G36*
X2229130D02*
X2228842D01*
X2229130Y9042D01*
Y9330D01*
D02*
G37*
G36*
X2293858Y8230D02*
X2293570D01*
Y7942D01*
X2293858Y8230D01*
D02*
G37*
G36*
X2291030D02*
X2290742D01*
X2291030Y7942D01*
Y8230D01*
D02*
G37*
G36*
X2320225Y17150D02*
X2318375D01*
X2316666Y16442D01*
X2315358Y15134D01*
X2314650Y13425D01*
Y11575D01*
X2315358Y9866D01*
X2316666Y8558D01*
X2318375Y7850D01*
X2320225D01*
X2321934Y8558D01*
X2323242Y9866D01*
X2323950Y11575D01*
Y13425D01*
X2323242Y15134D01*
X2321934Y16442D01*
X2320225Y17150D01*
D02*
G37*
G36*
X2277570Y7059D02*
Y6770D01*
X2277858D01*
X2277570Y7059D01*
D02*
G37*
G36*
X2275030D02*
X2274742Y6770D01*
X2275030D01*
Y7059D01*
D02*
G37*
G36*
X2256070Y6058D02*
Y5770D01*
X2256358D01*
X2256070Y6058D01*
D02*
G37*
G36*
X2253530D02*
X2253242Y5770D01*
X2253530D01*
Y6058D01*
D02*
G37*
G36*
X2277858Y4230D02*
X2277570D01*
Y3942D01*
X2277858Y4230D01*
D02*
G37*
G36*
X2275030D02*
X2274742D01*
X2275030Y3942D01*
Y4230D01*
D02*
G37*
G36*
X2256358Y3230D02*
X2256070D01*
Y2942D01*
X2256358Y3230D01*
D02*
G37*
G36*
X2253530D02*
X2253242D01*
X2253530Y2942D01*
Y3230D01*
D02*
G37*
%LPD*%
D38*
X2036500Y322200D02*
D03*
Y360200D02*
D03*
X2122900Y322200D02*
D03*
Y360200D02*
D03*
D48*
X1986500Y205400D02*
D03*
X1995600Y103700D02*
D03*
X2185800Y44260D02*
D03*
X2185700Y24200D02*
D03*
X2094000Y333500D02*
D03*
X2319300Y55500D02*
D03*
Y12500D02*
D03*
D49*
X2281370Y58249D02*
D03*
X2217410Y49220D02*
D03*
X2154410D02*
D03*
X2226100Y33300D02*
D03*
X2276300Y63500D02*
D03*
X2307300Y56500D02*
D03*
X2274300Y54500D02*
D03*
D50*
X2230400Y10600D02*
D03*
X2292300Y9500D02*
D03*
X2276300Y5500D02*
D03*
X2254800Y4500D02*
D03*
D51*
X2251530Y28530D02*
D03*
Y39530D02*
D03*
X2262530Y28530D02*
D03*
Y39530D02*
D03*
M02*
